<?xml version="1.0" encoding="UTF-8"?><svg id="Calque_2" xmlns="http://www.w3.org/2000/svg" viewBox="0 0 1169.27114 483.76186"><defs><style>.cls-1{fill:#fea917;}.cls-2{fill:#fff;}.cls-3{stroke:#da8f10;}.cls-3,.cls-4,.cls-5{fill:none;stroke-miterlimit:3.97369;stroke-width:8.51444px;}.cls-4{stroke:#ffd48b;}.cls-5{stroke:#daba84;}.cls-6{fill:#ffaa17;}.cls-7{fill:#b57509;}</style></defs><g id="Calque_1-2"><path d="M419.47131,128.98092h17.5l41.79999,96h-23.89999l-8.29999-20.3h-37.3l-8,20.3h-23.3l41.5-96ZM427.57131,156.88093l-11.7,29.8h23.49998l-11.79999-29.8Z"/><path d="M556.07131,153.88093c-2.10001-2.5-4.60001-4.5-7.70001-5.8-3-1.39999-6.5-2-10.5-2s-7.70001.8-11,2.3c-3.39999,1.5-6.29999,3.7-8.79999,6.39999-2.5,2.8-4.39999,6-5.79999,9.8s-2.10001,7.89999-2.10001,12.3c0,4.5.70001,8.7,2.10001,12.39999,1.39999,3.8,3.29999,7,5.79999,9.8,2.39999,2.8,5.29999,4.89999,8.60001,6.39999,3.29999,1.5,6.79999,2.3,10.60001,2.3,4.29999,0,8.20001-.89999,11.5-2.7s6.10001-4.3,8.29999-7.60001l17.60001,13.10001c-4.10001,5.7-9.20001,9.89999-15.5,12.60001-6.20001,2.7-12.70001,4.10001-19.29999,4.10001-7.5,0-14.39999-1.2-20.70001-3.5-6.29999-2.39999-11.79999-5.7-16.39999-10.10001-4.60001-4.39999-8.20001-9.7-10.79999-15.89999-2.60001-6.2-3.89999-13.2-3.89999-20.89999s1.29999-14.60001,3.89999-20.89999c2.60001-6.2,6.20001-11.5,10.79999-15.89999,4.60001-4.39999,10.10001-7.7,16.39999-10.10001,6.29999-2.3,13.20001-3.5,20.70001-3.5,2.70001,0,5.5.3,8.5.7,2.89999.5,5.79999,1.3,8.70001,2.39999,2.79999,1.10001,5.60001,2.5,8.20001,4.3s5,4,7,6.60001l-16.20004,13.39998Z"/><path d="M693.07131,128.98092h31.70001c7.70001,0,15,.89999,21.90002,2.60001,6.90002,1.7,12.90002,4.5,18.09998,8.3,5.20001,3.8,9.20001,8.8,12.29999,15,3,6.10001,4.5,13.60001,4.5,22.39999,0,7.8-1.5,14.60001-4.40002,20.5s-6.90002,10.89999-11.90002,14.89999-10.70001,7.10001-17.20001,9.2c-6.5,2.10001-13.29999,3.10001-20.5,3.10001h-34.59998v-96h.10004ZM714.27133,205.48092h11c4.90002,0,9.40002-.5,13.59998-1.5,4.20001-1,7.79999-2.60001,10.90002-4.89999,3.09998-2.3,5.5-5.3,7.29999-9.10001,1.79999-3.7,2.59998-8.3,2.59998-13.8,0-4.7-.90002-8.8-2.59998-12.3-1.79999-3.5-4.09998-6.3-7.09998-8.60001s-6.5-4-10.5-5.10001-8.20001-1.7-12.70001-1.7h-12.5v57.00002Z"/><path d="M889.17129,128.98092h32l22.09998,62.60001h.29999l22.20001-62.60001h31.80005v131.5h-21.09998v-109.09999h-.29999l-25.20001,73.59999h-16.09998l-24.30005-73.59999h-.29999v73.59999h-21.09998v-96h-.00006Z"/><path d="M1036.17129,128.98092h21.09998v96h-21.09998v-96Z"/><polygon points="870.07131 148.48092 870.07131 128.98092 802.3713 128.98092 802.3713 148.48092 824.3713 148.48092 870.07131 148.48092"/><polygon points="823.57131 205.48092 802.3713 205.48092 802.3713 224.98092 870.07131 224.98092 870.07131 205.48092 823.57131 205.48092"/><polygon points="870.07131 185.88093 870.07131 166.38093 824.3713 166.38093 802.3713 166.38093 802.3713 185.88093 824.3713 185.88093 870.07131 185.88093"/><polygon points="1161.77133 148.48092 1161.77133 128.98092 1094.17129 128.98092 1094.17129 148.48092 1116.07131 148.48092 1161.77133 148.48092"/><polygon points="1115.27133 205.48092 1094.17129 205.48092 1094.17129 224.98092 1161.77133 224.98092 1161.77133 205.48092 1115.27133 205.48092"/><polygon points="1161.77133 185.88093 1161.77133 166.38093 1116.07131 166.38093 1094.17129 166.38093 1094.17129 185.88093 1116.07131 185.88093 1161.77133 185.88093"/><path d="M660.17132,336.18093h20.5l-37.70001-94.39999h-17.5l-36.5,94.29999h18.89999l7-17.79999h38l7.30002,17.89999ZM633.57131,269.78094l11.79999,29.79999.5,1.20001h-24.39999l.5-1.20001,11.60001-29.79999Z"/><path class="cls-6" d="M774.07131,300.78094c0,5.70001-.90002,10.89999-2.59998,15.70001-1.70001,4.79999-4.29999,8.89999-7.70001,12.5-3.40002,3.5-7.59998,6.29999-12.70001,8.29999-5.09998,2-10.90002,3-17.5,3-6.70001,0-12.59998-1-17.59998-3-5.09998-2-9.29999-4.70001-12.70001-8.29999-3.40002-3.5-5.90002-7.70001-7.70001-12.5-1.70001-4.79999-2.59998-10-2.59998-15.70001v-59h21.09998v58.20001c0,3,.5,5.70001,1.40002,8.29999.90002,2.5,2.29999,4.70001,4,6.60001s3.79999,3.29999,6.20001,4.29999,5,1.60001,7.79999,1.60001,5.40002-.5,7.70001-1.60001c2.29999-1,4.40002-2.5,6.09998-4.29999,1.70001-1.89999,3.09998-4,4-6.60001.90002-2.5,1.40002-5.29999,1.40002-8.29999v-28.29999h21.09998v29.09998h.29999Z"/><path class="cls-6" d="M825.67129,260.48092h-23.20001v-18.7h67.59998v18.7h-23.20001v107.10001h-21.09998v-107.10001h-.09998Z"/><path class="cls-6" d="M1057.27133,300.88091c0,5.70001-.90002,10.89999-2.59998,15.70001-1.70001,4.79999-4.29999,8.89999-7.70001,12.5-3.40002,3.5-7.59998,6.29999-12.70001,8.29999-5.09998,2-10.90002,3-17.5,3-6.70001,0-12.59998-1-17.59998-3-5.09998-2-9.29999-4.70001-12.70001-8.29999-3.40002-3.5-5.90002-7.70001-7.70001-12.5-1.70001-4.79999-2.59998-10-2.59998-15.70001v-29.10001h21.09998v28.30002c0,3,.5,5.70001,1.40002,8.29999.90002,2.5,2.29999,4.70001,4,6.60001s3.79999,3.29999,6.20001,4.29999,5,1.60001,7.79999,1.60001,5.40002-.5,7.70001-1.60001c2.29999-1,4.40002-2.5,6.09998-4.29999,1.70001-1.89999,3.09998-4,4-6.60001.90002-2.5,1.40002-5.29999,1.40002-8.29999v-58.2h21.09998v58.99998h.29999Z"/><path class="cls-6" d="M377.97131,261.78094h7.89999c1.89999,0,3.7.20001,5.5.60001,1.7.39999,3.2,1.10001,4.5,2.10001s2.3,2.20001,3.10001,3.70001,1.10001,3.39999,1.10001,5.60001c0,1.89999-.39999,3.60001-1.10001,5.10001-.7,1.5-1.7,2.70001-3,3.70001-1.2,1-2.7,1.79999-4.3,2.29999s-3.3.79999-5.10001.79999h-8.60001v-23.90002h.00002ZM383.27131,280.88091h2.7c1.2,0,2.3-.10001,3.39999-.39999,1-.20001,2-.70001,2.7-1.20001.8-.60001,1.39999-1.29999,1.8-2.29999.39999-.89999.7-2.10001.7-3.39999,0-1.20001-.2-2.20001-.7-3.10001-.39999-.89999-1-1.60001-1.8-2.10001-.7-.60001-1.60001-1-2.60001-1.29999s-2.10001-.39999-3.2-.39999h-3.10001v14.19998h.10002Z"/><path class="cls-6" d="M406.57131,261.78094h16.2v4.89999h-11v4.5h10.39999v4.89999h-10.39999v4.89999h11.60001v4.89999h-16.8v-24.09998Z"/><path class="cls-6" d="M435.47131,296.88091h5.29999v19h9.79999v4.89999h-15v-23.89999h-.09998Z"/><path class="cls-6" d="M463.97131,296.88091h4.39999l10.39999,23.89999h-5.89999l-2.10001-5.10001h-9.29999l-2,5.10001h-5.79999l10.29999-23.89999ZM465.97131,303.78094l-2.89999,7.39999h5.79999l-2.89999-7.39999Z"/><path class="cls-6" d="M551.8713,241.78092v28.3h-41.10001v-28.3h-21.10001v125.8h21.10001v-41.5h41.10001v41.5h21.10001v-125.8h-21.10001ZM551.8713,307.48092h-41.10001v-18.60001h41.10001v18.60001Z"/><polygon class="cls-6" points="954.3713 291.18093 954.3713 271.68093 889.17129 271.68093 889.17129 291.18093 910.27133 291.18093 954.3713 291.18093"/><polygon class="cls-6" points="910.27133 348.08093 889.17129 348.08093 889.17129 367.58093 956.77133 367.58093 956.77133 348.08093 910.27133 348.08093"/><polygon class="cls-6" points="954.3713 328.58093 954.3713 309.08093 910.27133 309.08093 889.17129 309.08093 889.17129 328.58093 910.27133 328.58093 954.3713 328.58093"/><polygon class="cls-6" points="642.97131 165.88093 625.47131 165.88093 625.3713 165.98092 588.97131 260.18093 607.8713 260.18093 615.27133 241.48092 621.97131 223.58093 633.57131 193.78092 645.3713 223.58093 652.57131 241.48092 660.17132 260.18093 680.67132 260.18093 642.97131 165.88093"/><path class="cls-6" d="M1149.17129,342.18093c-1.70001-1.79999-3.09998-4-4-6.60001-.90002-2.29999-1.29999-4.89999-1.40002-7.60001,1.79999-.29999,3.29999-.60001,4.59998-.89999,6.79999-1.29999,11.90002-4.29999,15.5-9,3.5-4.70001,5.29999-10.5,5.29999-17.29999,0-5.60001-1-10.29999-2.90002-14s-4.59998-6.70001-7.90002-8.89999c-3.29999-2.20001-7.09998-3.79999-11.5-4.70001-4.40002-.89999-9-1.39999-13.90002-1.39999h-37.09998v96h21.09998v-38.39999h5.70001c.09998,5.29999.90002,10.20001,2.59998,14.60001,1.70001,4.79999,4.29999,8.89999,7.70001,12.5,3.40002,3.5,7.59998,6.29999,12.70001,8.29999,5.09998,2,16.90002,3,23.59998,3v-19.70001c-2.79999,0-11.40002-.5-13.79999-1.60001-2.49982-1-4.49982-2.39999-6.29987-4.29999ZM1135.47134,311.18093c-2.09998.10001-4.09998.20001-6,.20001h-12.5v-21.79999h13.79999c1.90002,0,3.79999.10001,5.79999.39999s3.70001.79999,5.29999,1.60001c1.5.79999,2.79999,1.89999,3.79999,3.29999s1.5,3.39999,1.5,5.79999c0,2.60001-.59998,4.70001-1.70001,6.10001s-2.59998,2.5-4.29999,3.20001c-1.69995.59998-3.59998.99997-5.69995,1.19998Z"/><path class="cls-4" d="M170.93977,91.42204l-24.6188,88.11875c-.20089.75893-.15623,1.47316.15623,2.16505.3348.71424.82584,1.22761,1.51776,1.56242,1.18295.55794,2.65605.95972,4.41933,1.16058.42409.04469.80352.24555,1.09367.53573,1.54007,1.56235,2.6784,3.41495,3.45961,5.60228,3.03548,8.3699,4.01755,17.47645,5.26748,26.3151.82584,5.91474,1.33918,11.53936,1.56239,16.87381.02231.58029.31249.98207.84815,1.22761.60263.26783,1.24993.22314,1.89719-.15629.46872-.26783.87046-.17851,1.20527.20092.31249.35709.3348.73652.08929,1.16064-.51335.84812-.87046,1.76321-1.07135,2.76762-.08929.37943,0,.73658.24552,1.04904.24552.29018.55801.44641.95975.46875,6.00402.02228,12.18666.75886,18.5478,2.23196,5.89242,1.33922,11.89648,4.08455,12.52143,10.69118.49103,5.15594.42409,10.64662-.17854,16.4721-.08929,1.02669-.80352,2.34356-2.09808,3.92826"/><path class="cls-5" d="M196.76384,273.79753l-15.17748,7.76733c-.49107.26783-.91512.60263-1.29456,1.02669l-9.86538,11.65096c-.26786.31246-.26786.62498,0,.93744.33477.40178.93744.60263,1.8079.62498"/><path class="cls-4" d="M172.23433,295.80494c8.61545,3.7274,17.18627,7.49944,25.73478,11.33844,5.44605,2.47751,8.14676,4.79879,10.51267,9.70918.29014.58029.73655.95972,1.3615,1.13829,1.96416.53566,3.66046,1.8079,4.12918,3.88363.37943,1.67402,1.16064,3.19174,2.34359,4.57559.78118.87046.91509,1.85253.42406,2.90157-1.45078,3.16946.73655,4.97736,2.70071,7.2763,6.71826,7.72264,13.54815,15.69083,20.51193,23.85993,6.42812,7.54406,14.64182,12.85623,24.59648,15.93637.73655.24548,1.38384.08926,1.94182-.44641.42409-.44641.37946-.82584-.13392-1.16064-1.96413-1.2499-3.21406-3.08014-3.77203-5.4684-.15626-.71424.1116-1.20527.80349-1.4731l.51338-.20086c.60263-.2232,1.00438-.02235,1.16061.58029l1.71865,5.84783c.15623.49103.46872.75886.95975.84812.49103.08932.89278-.06691,1.18295-.46869.60263-.80349,1.38384-1.11601,2.34359-.89281.24552.04463.40175.20092.46872.44641.02231.15623-.02235.29018-.1116.42406-.24552.35715-.60263.55801-1.07135.60263-.7589.1116-.93744.58035-.49103,1.45082.26783.53566.7142.75886,1.31687.69189,4.75413-.55794,9.32968-.80349,13.7267-.73652,4.88804.06697,9.32968-.87046,13.30264-2.78997,3.41495-1.65167,7.09769-.62498,9.75377,1.67395.44641.40178.69192.89281.71424,1.49544.13392,2.96854-.46872,5.64691-1.83025,8.01281-2.85694,4.95502-6.42812,9.17345-10.66887,12.63303"/><path class="cls-5" d="M296.37735,397.49415c-3.61584,2.74534-8.36996,4.37473-14.26239,4.84342-2.05342.15623-3.79438,1.5847-5.24516,4.30776-.17858.3348-.44641.58029-.80352.73652-3.48189,1.54007-7.00844,2.87929-10.53498,3.9953-2.12036.66954-3.99523-.66961-4.64253-2.63374-.62495-1.87488-1.62933-3.37032-3.03548-4.53096-3.01317-2.45516-4.10687-6.18263-6.00406-9.5306-.78118-1.33915-1.9195-1.8079-3.43726-1.38378-1.29452.35709-2.58908.46869-3.86132.31246-.51335-.06697-.87046-.3348-1.07135-.80349-.55801-1.18299-.62495-2.27665-.2232-3.25872.20089-.51338.55801-.73658,1.09367-.71424l2.18737.13388c2.65605.15629,3.12477-.75886,1.3615-2.74534-.64726-.78114-1.78559-1.9195-2.65605-2.45516-9.24043-6.04868-18.52548-11.85182-27.85517-17.43182-7.96819-4.7541-14.64185-11.29381-20.04324-19.61915-.2232-.3348-.53569-.46869-.93744-.35709l-3.34797.80349c-1.04904.26783-1.56239.91509-1.51776,1.98648,0,.87046-.3348,1.49544-1.07135,1.83025-.49103.24548-1.00438.2232-1.49541-.04463-2.61142-1.45082-4.68719-3.43729-6.20491-5.95943-.2232-.35715-.26786-.75886-.20089-1.18299l.95975-4.19609c.20089-.84818-.13392-1.38384-.95975-1.60705-2.9016-.84818-5.66925-1.67395-8.30299-3.23637-3.57118-2.09808-7.18698-4.26306-10.82513-6.49509-1.62936-.98207-3.54886-1.22761-5.46836-1.5847-.55801-.08926-.82584.15623-.80352.71424l.02231.62498c.02235.51331-.1116,1.00435-.40175,1.45075-.64726.98207-.64726,2.00882.02231,3.05786.2232.37943.24552.75886.06697,1.16058l-.73655,1.51779"/><path class="cls-4" d="M156.14172,335.19947c-.26786.44641-.42409.84812-.44641,1.20527-2.52214,20.89139-4.35238,41.84969-5.51302,62.87503-.13392,2.81231-.42406,6.09331-.87046,9.86534-.42406,3.54889-.71424,6.82989-.87046,9.84306"/><path class="cls-5" d="M144.24524,418.698l5.51299-58.0539c.04463-.31252-.04466-.60263-.26783-.82584-.2232-.2232-.49103-.3348-.82584-.31246l-2.16502.1116c-.78121.04463-1.2053.44634-1.29456,1.22755l-5.06662,54.81759"/><path class="cls-5" d="M137.52695,414.21174l5.57997-55.17468c.04463-.37943-.1116-.64726-.44641-.78121-5.3121-2.32122-9.32968-5.98171-12.05271-10.95901-.29018-.53573-.73655-.75886-1.31687-.66961-3.48189.51338-6.33886-.62498-8.52619-3.41495-1.89719-2.38825-3.77206-4.68719-5.64692-6.87452"/><path class="cls-4" d="M115.11782,336.33776c-.42408-.98207-.93742-1.76327-1.56239-2.36591-.51336-.49103-.71424-1.09367-.58032-1.8079.1116-.71424.49103-1.20527,1.13831-1.51773,3.10246-1.47316,5.62459-3.37032,7.54413-5.73623"/><path class="cls-5" d="M121.65755,324.91c2.07573-1.22761,3.95061-2.12036,5.55762-2.70071,1.49544-.51331,2.58911-1.33915,3.30335-2.47751.20089-.31246.2232-.62492.06697-.95972-.15626-.31252-.42409-.49103-.78121-.53566-3.23637-.3795-6.42812-1.11601-9.5752-2.16505-.60263-.20086-1.13833-.51338-1.62936-.91509-1.24993-1.04904-2.72303-.58035-3.68278.60263-1.69632,2.09801-3.70509,3.08014-6.02635,2.9462-.44641-.02235-.82584-.20086-1.13833-.53566-.31247-.3348-.44639-.73658-.44639-1.18299l.1116-4.57552c.02231-.35715-.1116-.66961-.37945-.91516-.24552-.24548-.55799-.35709-.91511-.3348-5.15589.40178-9.70913-.89275-13.63742-3.81666-7.81196-5.84783-13.23568-13.59281-16.29349-23.27965"/><path class="cls-4" d="M76.19201,284.06466c.04463-.2232-.13393-.71424-.55801-1.4731"/><path class="cls-5" d="M75.634,282.59156c-.29016-1.02669-.80351-1.78556-1.54007-2.23196"/><path class="cls-4" d="M74.09393,280.3596c-1.07135-.13395-1.78559-.84818-2.09806-2.16505"/><path class="cls-5" d="M71.99587,278.19455l-.82584-1.78556"/><path class="cls-4" d="M71.17003,276.40899c-.24552-.51338-.02231-1.60705.69192-3.25872.17856-.37943.13392-.73658-.08929-1.07139-.22319-.35709-.53568-.51331-.93742-.51331-.91512,0-1.98648.37943-3.2587,1.13829"/><path class="cls-5" d="M67.57654,272.70387c-2.81231-1.02669-4.39701-3.08014-4.75413-6.20491-.04464-.44641.04464-.87046.22319-1.27224.62496-1.27224.75888-2.61139.37945-4.03986-1.58472-6.09331-.87048-12.18669,2.16502-18.25765.17856-.35715.26785-.71424.2232-1.11601-.15625-2.32128.66959-3.97295-.02231-6.31651-1.51776-5.28982-3.08014-10.93673-3.2587-16.58364-.17856-5.4237-.69192-10.84747-1.58472-16.22655-.89279-5.57993-1.16062-11.76257.46872-17.09701,2.72303-8.86093,6.071-17.2309,11.96344-24.68577"/><path class="cls-4" d="M73.37969,160.9037c.73657-.37943,1.31687-.91509,1.71863-1.60698"/><path class="cls-5" d="M75.09832,159.29672l3.59351-1.65167c.24552-.1116.40175-.31252.44639-.60263.02233-.29018-.06696-.51338-.29016-.71424-1.51774-1.29459-2.9239-3.14712-4.24077-5.51302"/><path class="cls-4" d="M74.60729,150.81515c.49103-5.22285,1.89719-10.40107,4.19612-15.5346,2.09808-4.64256,5.28981-8.16911,9.12883-11.36079,10.28945-8.45928,24.68575-6.16029,34.70738,1.78556,2.99086,2.38825,5.06659,5.87011,6.20491,10.42335,1.02673,4.08455,1.98648,8.54854,2.85694,13.43658,1.27224,7.07538-8.77171,9.21808-11.18225,15.22214-2.29893,5.71388-4.91037,11.38313-11.69561,12.5884-.84815.15623-1.18294.64726-1.04902,1.4731.87046,5.40142,1.8079,10.95908,2.78998,16.65061.75886,4.35238-.40176,10.7805,3.61582,13.77132,2.00877,1.47316,3.95061,2.94626,5.82548,4.39701.58032.44641,1.22758.60263,1.94182.44641l6.22723-1.29452c.42409-.06697.73658-.31252.9821-.66961l4.12915-6.31651"/><path class="cls-5" d="M133.28617,205.8336c1.89719-2.67837,3.1248-5.98171,3.68278-9.93232.1116-.66961-.15623-1.13836-.78118-1.40619-2.14271-.84812-2.99086-2.52214-2.52214-5.02193.66958-3.48192.62495-6.20491-.15626-8.12448"/><path class="cls-4" d="M133.50937,181.34869c-.15623-1.6963.84815-3.1694,3.03552-4.41929"/><path class="cls-5" d="M136.54489,176.92939l3.41495-.06697c.42406-.02228.66958-.2232.75886-.64726l17.9005-86.15465"/><path class="cls-5" d="M161.00742,89.92659c-5.78082,28.27923-11.56168,56.55852-17.38716,84.88237-.24552,1.27224-.35712,2.12042-.29014,2.5222.31246,1.76327.71424,1.78556,1.18295.06691l24.01616-86.86885"/><path class="cls-3" d="M133.50937,181.34869c-1.83022,1.54007-2.63374,3.9953-2.41054,7.32093.24552,3.97295.60263,7.90121,1.04904,11.78491.04463.24548.17854.44641.40175.58029.26783.13395.31249.31252.17858.58035-.51338,1.02669-.84815,2.05339-1.00441,3.03545-.06694.3795.02231.69195.29018,1.00441.3348.37943.75886.42406,1.27221.17858"/><path class="cls-3" d="M74.60729,150.81515c-1.78559-.80349-2.41055.49103-1.9195,3.86135.06696.44641.24552.82584.53568,1.13829.35712.40178.49103.84818.44639,1.38384-.06696.44641.08929.84818.42408,1.16064l1.0044.93744"/><path class="cls-3" d="M73.37969,160.9037c-.29016-.04463-.42408-.13388-.40175-.26783.17854-.89275.06696-1.71858-.3348-2.45516-.78119-1.51773-1.02671-3.01317-.73657-4.50861.24553-1.29452.2232-2.56676-.04463-3.81666-.15625-.66961-.29016-.66961-.40176.02228-.49103,2.96854-.42408,5.9148.15625,8.861.08927.44641,0,.87046-.24553,1.27224-1.38383,2.18733-2.9239,4.39701-4.64251,6.60669-1.27224,1.62933-2.29895,3.21403-3.12479,4.77644-.82584,1.5847-1.74094,3.25865-2.74534,4.99965-1.07135,1.87488-1.18295,4.33004-2.20966,6.3388-.55801,1.07139-.93744,2.14271-1.18295,3.23637-.2232.98213-.49105,1.94185-.82584,2.87929-1.47311,4.06221-1.74094,8.50385-.84815,13.32498.17856.82577-.2232,1.62933-.1116,2.34356.78119,5.98171,1.33918,11.82954,1.65166,17.52107.08929,1.78562.3348,3.52655.69192,5.2005.37945,1.78562.51336,3.54889.40176,5.26754-.04464.44634.04464.84812.2232,1.2499,1.40614,2.85694,1.98646,5.66925,1.74094,8.39225-.17856,2.05345-.53568,4.15153-1.116,6.31651-.58032,2.23203-.91511,4.37473-1.02671,6.42812-.24552,4.84342-.24552,9.88769.02231,15.08826.13393,2.90157,1.60703,5.53531,3.86134,7.34321,1.78559,1.42847,3.10246,3.14712,4.01758,5.13359.17856.40171.22319.82584.13392,1.2499-.73655,4.03986-.31247,7.54413,1.29456,10.53495,1.11598,2.12042,2.05342,2.0311,2.8123-.24548.37943-1.18299.84815-2.32128,1.45078-3.43729.64728-1.22761,1.20528-2.54448,1.65167-3.97295.46872-1.49538,1.18295-2.81225,2.14271-3.99523"/><path class="cls-3" d="M76.19201,284.06466c-1.3392,4.75416-2.36591,7.8343-3.08014,9.26277-1.04904,2.05339-.60263,3.43723,1.33918,4.12918.40176.15623.71424.42406.93744.78114,4.08454,7.00847,9.39666,12.5884,15.93637,16.73993,2.74534,1.74093,5.71388,2.23196,8.72707,3.25872.37943.13388.71424.33474.98207.62492l3.88367,4.03993c.22319.2232.49103.35709.82582.42406,1.87488.31246,3.19174.40178,5.17822-.3348,3.39262-1.27224,6.96379-.62498,10.73586,1.9195"/><path class="cls-3" d="M115.11782,336.33776l-2.83463-2.74534c-.20087-.20086-.4687-.3348-.75886-.42406-.29016-.06697-.55801-.06697-.84815.02228-.29016.06697-.55801.2232-.75888.42412-.2232.2232-.35712.46869-.44641.75886-1.42847,5.13353,1.02671,6.87452,3.77206,10.40107,1.18295,1.54007,2.49982,3.03545,3.95061,4.46392,2.09808,2.05345,4.5979,3.41495,7.49947,4.1069.31249.06691.60263.2232.87046.44634,3.34801,3.03552,6.629,6.07103,9.79843,9.0842,1.9195,1.87488,2.76765,4.15153,2.52214,6.87452-.91512,9.88769-2.0311,19.9763-3.34797,30.2657-.2232,1.8079-.60263,3.74975-1.09367,5.84783-.44641,1.87488-.69192,3.90598-.73658,6.07097"/><path class="cls-3" d="M156.14172,335.19947c.26783.62492.40175,1.31687.42406,2.07573,0,.58035.20089.66961.64729.26783,1.62933-1.49544,3.63812-1.4731,6.04865.06697.60263.40178,1.24993.64726,1.94185.73658.40175.06691.75886.20086,1.09367.40171l8.97257,5.3568c.58032.3348,1.02673.82584,1.29456,1.45075.62498,1.36156,1.24993,2.74534,1.85256,4.12918.98207,2.25431,2.65605,4.12918,4.99965,5.62463,1.09367.71424,2.23199.98207,3.3926.82584,1.36153-.17858,2.65608-.44641,3.90598-.82584.40178-.1116.80352-.13395,1.22761-.02235,1.65164.37943,2.99086,1.11601,3.99523,2.16505,2.38822,2.52214,4.99965,5.13353,7.81196,7.85659,1.2499,1.22761,2.94623,1.62933,3.97292,3.01317.29018.37943.62498.64726,1.04904.82584,1.02673.46875,1.98648,1.04904,2.85694,1.74093.91512.69195,1.83022,1.33922,2.74534,1.98648,2.05342,1.40619,4.10687,2.78997,6.1826,4.15153,2.05342,1.31687,4.1515,2.58911,6.33886,3.77203,3.6158,1.98648,7.12,4.17381,10.51264,6.60669,4.84342,3.43723-2.18733,10.06627,6.36114,12.76698,1.83025.58029,3.32566,2.00876,4.75413,3.23637.31249.29011.55801.64726.71424,1.07132.26786.71424.73658,1.2499,1.40616,1.60705.42409.2232.7589.51331,1.04904.87046,1.65167,2.0311,3.30335,4.08455,4.97733,6.16029.69192.84812,1.56239,1.5847,2.58911,2.16505,1.07135.58029,2.18733.91509,3.32566.93737,2.07573.06697,4.10684-.31246,6.09331-1.13829,2.90157-1.20527,5.57997-2.76762,8.01281-4.73182,1.62936-1.29452,3.30335-2.14271,5.06662-2.56676,1.98648-.49103,4.01758-.93744,6.04868-1.33922.37943-.06691.71424-.24548.95975-.55794.3348-.42412.82584-.66961,1.40616-.73658.37943-.02235.69189-.15623.98207-.37943l6.42812-4.88804c.13392-.06697.15623-.17858.08929-.29018-.06697-.13395-.17858-.17858-.31249-.08926-.3348.15623-.73655.2232-1.16064.20086-.37943-.04463-.69192.1116-.91509.44641-.17858.29018-.40178.42406-.66961.42406-1.13833,0-1.18295-.2232-.15623-.69189,1.20527-.51338,1.85253-1.31687,1.9195-2.38825"/><path class="cls-3" d="M172.23433,295.80494c1.04904-.58035,1.6963-1.51779,1.96413-2.76769.13392-.55801.40178-.95972.8705-1.27224.78118-.49103,1.42847-1.20527,1.89719-2.16499.2232-.44641.58032-.78121,1.02669-1.00441,4.53093-2.16505,8.861-4.44164,12.99018-6.85217,3.63812-2.09808,5.57993-4.75416,5.78082-7.94591"/><path class="cls-3" d="M67.57654,272.70387l3.59349,3.70512"/><path class="cls-3" d="M71.99587,278.19455c.06696,2.54448-.91511,4.55324-2.96854,6.07103-.37943.26783-.62495.64726-.71424,1.11595-.15625.73658.2232,1.20527,1.07135,1.40619.53568.1116.95975-.06697,1.2276-.53566l3.48189-5.89246"/><path class="cls-3" d="M136.54489,176.92939c-.42409-1.56242-.35712-2.94626.20089-4.17381.17854-.35715.26783-.75886.24552-1.16064-.02235-1.18299.08926-2.29893.33477-3.3926.55801-2.61146.89281-5.26748.9821-8.01281.04463-1.54007.37943-2.99089.98207-4.41936,1.2499-2.90157,2.12039-5.84783,2.58911-8.79402.44637-2.81231.95975-5.51302,1.49541-8.10213.58032-2.72299,1.07135-5.46833,1.47313-8.23602.60263-4.08449,1.45078-8.01281,2.49982-11.78485.58029-1.98648.55797-4.03993,1.38381-5.95943.60263-1.40612.98207-2.85694,1.13833-4.37467.26783-2.4552.60263-4.91039,1.00438-7.34324.02231-.08929.04466-.13392.13392-.15623.08929-.02235.20089-.04466.3348-.06697.06697,0,.1116-.04463.1116-.1116.04466-2.58911.46872-5.11125,1.27224-7.52178.20086-.58032.15623-1.13833-.08929-1.67399-.08929-.17858-.04463-.26786.15623-.29018.1116-.02231.24555,0,.3348.06697.17858.08929.29018.2232.35712.42406.35712,1.27224.2232,2.41057-.42406,3.41495-.17858.24552-.2232.51335-.15626.80352.17858.87046.1116,1.65167-.20086,2.36591-.31249.75886-.49103,1.54007-.55801,2.41054-.1116,1.40616-.17858,2.83463-.20089,4.30772q0,.04466.04466.06697c.02231,0,.02231-.02231.04463-.04466.82584-3.45957,1.65167-7.07538,2.47751-10.91438.40175-1.80793.06694-3.19174-.98207-4.10687"/><path class="cls-5" d="M137.14752,181.41566c1.00438-.24548,1.85253-.64726,2.56676-1.16064.26786-.17851.37946-.44634.29018-.75886-.06697-.3348-.26783-.51331-.60263-.58029-2.18737-.3348-3.25872.26783-3.16943,1.8079.02231.62492.3348.84812.91512.69189"/><path class="cls-5" d="M104.7391,181.14783c-.02233-.17858-.13393-.29018-.3348-.3348-.20087-.02228-.3348.04463-.42408.2232l-2.83463,5.71388c-.06696.13395-.06696.26783.02233.37943l4.75413,7.99053c.11159.20086.29016.24548.49103.17858.20087-.08932.29016-.2232.26783-.44641l-1.94182-13.70441"/><path class="cls-5" d="M135.87528,192.99965c.42409.1116.8705-.1116,1.36153-.66954.46872-.55801.80349-1.29459,1.04901-2.20968.2232-.89281.29018-1.71865.13395-2.43288-.13395-.71424-.42409-1.13829-.84818-1.2499-.42406-.1116-.87046.1116-1.33918.66961-.49103.58029-.82584,1.31687-1.07135,2.20961-.2232.91516-.26783,1.71865-.13392,2.45523.13392.71424.42409,1.11595.84815,1.22755"/><path class="cls-4" d="M149.62432,191.45958c-2.12039.75893-4.10687,1.74099-5.89246,2.96854-.3348.2232-.55801.53573-.71424.89281l-3.70509,9.84306c-.42406,1.16064-.1116,2.05345.95975,2.65608.98207.53566,1.33918,1.3615,1.09367,2.45516-.31246,1.42847-1.00438,2.58911-2.07573,3.5042-.55801.46875-.80352,1.07139-.71424,1.8079.37943,3.32569.02231,6.42812-1.04904,9.3074-.20089.58035-.1116,1.09367.31249,1.54007,3.01317,3.281,6.11563,6.51737,9.30737,9.66449,3.37029,3.32569,8.92794,2.38825,12.85623,1.20527.31249-.1116.44641-.31246.42409-.62492-1.16064-13.36961-2.72303-26.62762-4.66487-39.79631-.44637-2.96854-1.4731-5.9148-3.99523-7.67801-.35712-.26789-.73655-.29018-1.13833-.1116-.40175.17851-.62495.49103-.66958.91509-.02235.24548-.02235.49103.04463.71424.1116.35709-.02231.60263-.37943.73652"/><path class="cls-4" d="M145.91923,191.21409c-.15626-.3348-.66961-.31246-1.56242.08926-.89278.37943-1.27221.75893-1.13829,1.07139.15623.3348.66961.31246,1.56239-.08932.89281-.37943,1.27224-.73652,1.13833-1.07132"/><path class="cls-5" d="M132.79514,215.76592c.17858-.71424-.04463-.89281-.71424-.58029-.93744.46869-1.65167,1.18292-2.12039,2.18733-.20086.44641-.1116.78121.31249,1.02669l.80352.51338c.20086.1116.40175.1116.62495.04463.20089-.08926.3348-.24548.37943-.44641l.71424-2.74534"/><path class="cls-5" d="M64.54104,258.73162l2.36589.3348c.24552.02235.37945-.06697.40176-.31246l.40176-2.76769c.17856-1.29452.33479-2.54442.42408-3.77203.08929-1.20527.13392-2.27665.13392-3.21409-.02231-.91509-.08927-1.65167-.20087-2.16499-.1116-.53566-.26785-.80356-.46872-.82584l-.08927-.02235c-.20089-.02228-.42409.20092-.66961.66961-.24552.46875-.51335,1.16064-.78119,2.05345-.26783.89275-.53568,1.94178-.78119,3.12477-.24552,1.18292-.46872,2.41054-.64728,3.70506l-.40176,2.76769c-.02231.24555.08929.37943.31249.42406"/><path class="cls-4" d="M70.96916,264.51248c-.17856-1.3615-.84817-1.8079-2.03112-1.31687-.69191.29018-.73655.64726-.11159,1.07139l1.22758.82584c.71424.49103,1.02673.29011.91512-.58035"/><path class="cls-4" d="M68.42469,268.90949c.37943-.37943.24552-.91509-.44641-1.56235-.69191-.66961-1.22758-.80356-1.60703-.40178-.37943.37943-.22319.91509.46872,1.56235.69192.66961,1.2276.80356,1.58472.40178"/><path class="cls-5" d="M152.61518,277.81511c-2.16502-.08926-4.3747-.53566-6.629-1.31687-3.10246-1.11601-6.2942-.40178-9.5752-.42406-3.72744,0-3.83904.64726-.3348,1.9195,4.3747,1.5847,8.63776,3.68278,12.78926,6.27189.37946.24548.69192.17851.93744-.20092l3.32566-5.24513c.13392-.20092.15626-.42412.02231-.64726-.11157-.2232-.29014-.35715-.53566-.35715"/><path class="cls-5" d="M110.69849,316.60701l3.39262-2.45516c.17856-.13395.20087-.29018.06696-.46875l-.1116-.15623c-.40175-.55801-.93744-.91509-1.62934-1.02669-.66959-.13395-1.27224,0-1.83023.40178-.53568.37943-.84815.91509-.93744,1.60698-.08927.66961.06696,1.29459.46872,1.85259l.1116.17851c.13392.17858.29016.20092.46872.06697"/><path class="cls-4" d="M152.21343,329.68645c.26783-.04463.44637-.3348.58029-.87046.1116-.55801.1116-1.18292,0-1.89716-.1116-.73658-.29014-1.33922-.55797-1.83025-.26786-.46875-.51338-.69195-.78121-.66961-.26783.04463-.46872.3348-.58032.87046s-.1116,1.18299-.02231,1.89722c.1116.73652.29014,1.33915.55801,1.83018.26783.46875.53566.69195.80352.66961"/><path class="cls-4" d="M151.78934,335.93599c.02231-.51331-.2232-.78114-.73655-.80349h-.2232c-.51335-.02235-.78121.2232-.80352.75886l-.3348,8.77174c0,.51331.24552.80349.7589.80349l.2232.02235c.51335.02228.78118-.24555.80349-.75893l.31249-8.79402"/><path class="cls-3" d="M71.57179,144.94504c.02231-.24555-.04464-.29018-.24552-.15623-.55801.35709-.84817.84812-.89279,1.4731-.20089,3.86135-.13392,8.50385.20087,13.90527.02231.08926.04464.1116.08929.02235.02231-.04469.06696-.06697.1116-.08932.08927-.02228.15623-.08926.13392-.20086-.31249-5.11125-.1116-10.08861.60263-14.95431"/><path class="cls-2" d="M170.93968,91.42209l-24.61879,88.11875c-.20088.75887-.15624,1.47311.15624,2.16503.3348.71424.82583,1.22759,1.51775,1.56239,1.18295.558,2.65606.95975,4.41933,1.16063.42408.04464.80351.24552,1.09367.53568,1.54007,1.56239,2.67838,3.41494,3.45958,5.60228,3.0355,8.36994,4.01757,17.47644,5.26748,26.3151.82583,5.91476,1.33919,11.53936,1.56239,16.8738.02232.58032.31248.98207.84815,1.22759.60264.26784,1.24991.2232,1.89719-.15624.46872-.26784.87047-.17856,1.20527.20088.31248.35712.3348.73655.08928,1.16063-.51336.84815-.87047,1.76327-1.07135,2.76766-.08928.37944,0,.73655.24552,1.04903.24552.29016.558.4464.95975.46872,6.00404.02232,12.18664.75887,18.54779,2.23198,5.89244,1.33919,11.89648,4.08453,12.52143,10.69121.49104,5.15588.42408,10.64657-.17856,16.47205-.08928,1.02671-.80351,2.34358-2.09807,3.92829l-15.1775,7.76731c-.49104.26784-.91511.60264-1.29455,1.02671l-9.86537,11.65096c-.26784.31248-.26784.62496,0,.93743.3348.40176.93743.60264,1.80791.62496,8.61546,3.72741,17.18628,7.49947,25.73478,11.33848,5.44604,2.4775,8.14674,4.79877,10.51265,9.70913.29016.58032.73655.95975,1.36151,1.13831,1.96415.53568,3.66045,1.80791,4.12917,3.88365.37944,1.67399,1.16063,3.19174,2.34358,4.57557.78119.87047.91511,1.85255.42408,2.90158-1.45079,3.16942.73655,4.97733,2.7007,7.27627,6.71827,7.72267,13.54815,15.69085,20.51194,23.85992,6.42812,7.54411,14.64182,12.85623,24.59647,15.93637.73655.24552,1.38383.08928,1.94183-.4464.42408-.4464.37944-.82583-.13392-1.16063-1.96415-1.24991-3.21406-3.08014-3.77205-5.46836-.15624-.71424.1116-1.20527.80351-1.47311l.51336-.20088c.60264-.2232,1.00439-.02232,1.16063.58032l1.71863,5.8478c.15624.49104.46872.75887.95975.84815s.89279-.06696,1.18295-.46872c.60264-.80351,1.38383-1.11599,2.34358-.89279.24552.04464.40176.20088.46872.4464.02232.15624-.02232.29016-.1116.42408-.24552.35712-.60264.558-1.07135.60264-.75887.1116-.93743.58032-.49104,1.45079.26784.53568.71424.75887,1.31687.69192,4.75413-.558,9.3297-.80351,13.72671-.73655,4.88805.06696,9.3297-.87047,13.30263-2.78998,3.41494-1.65167,7.09771-.62496,9.75377,1.67399.4464.40176.69192.89279.71424,1.49543.13392,2.96854-.46872,5.64692-1.83023,8.01282-2.85694,4.95501-6.42812,9.17346-10.66889,12.63303-3.61582,2.74534-8.36994,4.37469-14.26238,4.84341-2.05343.15624-3.79437,1.58471-5.24516,4.30773-.17856.3348-.4464.58032-.80351.73655-3.4819,1.54007-7.00843,2.87926-10.53497,3.99525-2.12039.6696-3.99525-.6696-4.64253-2.63374-.62496-1.87487-1.62935-3.3703-3.0355-4.53093-3.01318-2.45518-4.10685-6.1826-6.00404-9.53057-.78119-1.33919-1.91951-1.80791-3.43726-1.38383-1.29455.35712-2.5891.46872-3.86133.31248-.51336-.06696-.87047-.3348-1.07135-.80351-.558-1.18295-.62496-2.27662-.2232-3.2587.20088-.51336.558-.73655,1.09367-.71424l2.18734.13392c2.65606.15624,3.12478-.75887,1.36151-2.74534-.64728-.78119-1.78559-1.91951-2.65606-2.45518-9.24042-6.04868-18.52547-11.85184-27.85517-17.4318-7.96818-4.75413-14.64182-11.29384-20.04322-19.61914-.2232-.3348-.53568-.46872-.93743-.35712l-3.34798.80351c-1.04903.26784-1.56239.91511-1.51775,1.98647,0,.87047-.3348,1.49543-1.07135,1.83023-.49104.24552-1.00439.2232-1.49543-.04464-2.61142-1.45079-4.68717-3.43726-6.20492-5.9594-.2232-.35712-.26784-.75887-.20088-1.18295l.95975-4.19613c.20088-.84815-.13392-1.38383-.95975-1.60703-2.90158-.84815-5.66924-1.67399-8.30298-3.23638-3.57118-2.09807-7.18699-4.26309-10.82513-6.49508-1.62935-.98207-3.54886-1.22759-5.46836-1.58471-.558-.08928-.82583.15624-.80351.71424l.02232.62496c.02232.51336-.1116,1.00439-.40176,1.45079-.64728.98207-.64728,1.98647.02232,3.05782.2232.37944.24552.75887.06696,1.16063l-.73655,1.51775c-.26784.4464-.42408.84815-.4464,1.20527-2.52214,20.89138-4.35237,41.84971-5.513,62.87501-.13392,2.8123-.42408,6.09332-.87047,9.86537-.42408,3.54886-.71424,6.82987-.87047,9.84305l-5.04429,63.8794c-.04464.60264-.37944.89279-1.00439.87047l-2.87926-.06696c-.62496,0-.91511-.3348-.84815-.93743l5.57996-64.03564,5.513-58.05392c.04464-.31248-.04464-.60264-.26784-.82583s-.49104-.3348-.82583-.31248l-2.16503.1116c-.78119.04464-1.20527.4464-1.29455,1.22759l-5.0666,54.81754-6.85219,67.42825c-.04464.46872-.29016.69192-.73655.6696l-1.22759-.04464c-.49104-.02232-.71424-.26784-.6696-.75887l6.87451-68.74513,5.57996-55.17466c.04464-.37944-.1116-.64728-.4464-.78119-5.31212-2.32126-9.3297-5.98172-12.05272-10.95904-.29016-.53568-.73655-.75887-1.31687-.6696-3.4819.51336-6.33884-.62496-8.52618-3.41494-1.89719-2.38822-3.77205-4.68717-5.64692-6.87451-.42408-.98207-.93743-1.76327-1.56239-2.3659-.51336-.49104-.71424-1.09367-.58032-1.80791.1116-.71424.49104-1.20527,1.13831-1.51775,3.10246-1.47311,5.6246-3.3703,7.54411-5.7362,2.07575-1.22759,3.95061-2.12039,5.55764-2.7007,1.49543-.51336,2.5891-1.33919,3.30334-2.4775.20088-.31248.2232-.62496.06696-.95975-.15624-.31248-.42408-.49104-.78119-.53568-3.23638-.37944-6.42812-1.11599-9.57521-2.16503-.60264-.20088-1.13831-.51336-1.62935-.91511-1.24991-1.04903-2.72302-.58032-3.68277.60264-1.69631,2.09807-3.70509,3.08014-6.02636,2.94622-.4464-.02232-.82583-.20088-1.13831-.53568s-.4464-.73655-.4464-1.18295l.1116-4.57557c.02232-.35712-.1116-.6696-.37944-.91511-.24552-.24552-.558-.35712-.91511-.3348-5.15588.40176-9.70913-.89279-13.63743-3.81669-7.81195-5.8478-13.23567-13.59279-16.29349-23.2796.04464-.2232-.13392-.71424-.558-1.47311-.29016-1.02671-.80351-1.78559-1.54007-2.23198-1.07135-.13392-1.78559-.84815-2.09807-2.16503l-.82583-1.78559c-.24552-.51336-.02232-1.60703.69192-3.2587.17856-.37944.13392-.73655-.08928-1.07135-.2232-.35712-.53568-.51336-.93743-.51336-.91511,0-1.98647.37944-3.2587,1.13831-2.8123-1.02671-4.39701-3.08014-4.75413-6.20492-.04464-.4464.04464-.87047.2232-1.27223.62496-1.27223.75887-2.61142.37944-4.03989-1.58471-6.09332-.87047-12.18664,2.16503-18.25763.17856-.35712.26784-.71424.2232-1.11599-.15624-2.32126.6696-3.97293-.02232-6.31652-1.51775-5.2898-3.08014-10.93672-3.2587-16.58365-.17856-5.42372-.69192-10.84745-1.58471-16.22653-.89279-5.57996-1.16063-11.76256.46872-17.097,2.72302-8.86098,6.071-17.23092,11.96344-24.68575.73655-.37944,1.31687-.91511,1.71863-1.60703l3.5935-1.65167c.24552-.1116.40176-.31248.4464-.60264.02232-.29016-.06696-.51336-.29016-.71424-1.51775-1.29455-2.9239-3.1471-4.24077-5.513.49104-5.22284,1.89719-10.40105,4.19613-15.53461,2.09807-4.64253,5.2898-8.16906,9.12882-11.3608,10.28945-8.45922,24.68575-6.16028,34.70736,1.78559,2.99086,2.38822,5.0666,5.87012,6.20492,10.42337,1.02671,4.08453,1.98647,8.5485,2.85694,13.43655,1.27223,7.07539-8.7717,9.2181-11.18224,15.22213-2.29894,5.71388-4.91037,11.38312-11.6956,12.58839-.84815.15624-1.18295.64728-1.04903,1.47311.87047,5.4014,1.80791,10.95904,2.78998,16.6506.75887,4.35237-.40176,10.78049,3.61582,13.77134,2.00879,1.47311,3.95061,2.94622,5.82548,4.39701.58032.4464,1.22759.60264,1.94183.4464l6.22724-1.29455c.42408-.06696.73655-.29016.98207-.6696l4.12917-6.31652c1.89719-2.67838,3.12478-5.98172,3.68277-9.93233.1116-.6696-.15624-1.13831-.78119-1.40615-2.14271-.84815-2.99086-2.52214-2.52214-5.02197.6696-3.4819.62496-6.20492-.15624-8.12442-.15624-1.69631.84815-3.16942,3.0355-4.41933l3.41494-.06696c.42408-.02232.6696-.2232.75887-.64728l17.90052-86.1546L176.34108.98207c.13392-.58032.49104-.87047,1.09367-.84815l1.33919.02232c.42408,0,.60264.2232.51336.6696l-18.27995,89.10082c-5.78084,28.27924-11.56168,56.55849-17.38716,84.88237-.24552,1.27223-.35712,2.12039-.29016,2.52214.31248,1.76327.71424,1.78559,1.18295.06696l24.01615-86.86884L193.21488,1.18295c.13392-.4464.40176-.73655.82583-.91511.46872-.17856.98207-.26784,1.49543-.26784.75887.02232,1.04903.40176.84815,1.13831l-25.44462,90.28378ZM137.14743,181.41571c1.00439-.24552,1.85255-.64728,2.56678-1.16063.26784-.17856.37944-.4464.29016-.75887-.06696-.3348-.26784-.51336-.60264-.58032-2.18734-.3348-3.2587.26784-3.16942,1.80791.02232.62496.3348.84815.91511.69192ZM104.73901,181.14787c-.02232-.17856-.13392-.29016-.3348-.3348-.20088-.02232-.3348.04464-.42408.2232l-2.83462,5.71388c-.06696.13392-.06696.26784.02232.37944l4.75413,7.9905c.1116.20088.29016.24552.49104.17856.20088-.08928.29016-.2232.26784-.4464l-1.94183-13.70439ZM135.8752,192.99971c.42408.1116.87047-.1116,1.36151-.6696.46872-.558.80351-1.29455,1.04903-2.20966.2232-.89279.29016-1.71863.13392-2.43286-.13392-.71424-.42408-1.13831-.84815-1.24991s-.87047.1116-1.33919.6696c-.49104.58032-.82583,1.31687-1.07135,2.20966-.2232.91511-.26784,1.71863-.13392,2.45518.13392.71424.42408,1.11599.84815,1.22759ZM149.62422,191.45964c-2.12039.75887-4.10685,1.74095-5.89244,2.96854-.3348.2232-.558.53568-.71424.89279l-3.70509,9.84305c-.42408,1.16063-.1116,2.05343.95975,2.65606.98207.53568,1.33919,1.36151,1.09367,2.45518-.31248,1.42847-1.00439,2.5891-2.07575,3.50422-.558.46872-.80351,1.07135-.71424,1.80791.37944,3.32566.02232,6.42812-1.04903,9.30738-.20088.58032-.1116,1.09367.31248,1.54007,3.01318,3.28102,6.11564,6.51739,9.30738,9.66449,3.3703,3.32566,8.92794,2.38822,12.85623,1.20527.31248-.1116.4464-.31248.42408-.62496-1.16063-13.36959-2.72302-26.62758-4.66485-39.79629-.4464-2.96854-1.47311-5.91476-3.99525-7.67803-.35712-.26784-.73655-.29016-1.13831-.1116s-.62496.49104-.6696.91511c-.02232.24552-.02232.49104.04464.71424.1116.35712-.02232.60264-.37944.73655ZM145.91913,191.21412c-.15624-.3348-.6696-.31248-1.56239.08928-.89279.37944-1.27223.75887-1.13831,1.07135.15624.3348.6696.31248,1.56239-.08928.89279-.37944,1.27223-.73655,1.13831-1.07135ZM132.79506,215.76595c.17856-.71424-.04464-.89279-.71424-.58032-.93743.46872-1.65167,1.18295-2.12039,2.18734-.20088.4464-.1116.78119.31248,1.02671l.80351.51336c.20088.1116.40176.1116.62496.04464.20088-.08928.3348-.24552.37944-.4464l.71424-2.74534ZM64.54097,258.73165l2.3659.3348c.24552.02232.37944-.06696.40176-.31248l.40176-2.76766c.17856-1.29455.3348-2.54446.42408-3.77205.08928-1.20527.13392-2.27662.13392-3.21406-.02232-.91511-.08928-1.65167-.20088-2.16503-.1116-.53568-.26784-.80351-.46872-.82583l-.08928-.02232c-.20088-.02232-.42408.20088-.6696.6696s-.51336,1.16063-.78119,2.05343-.53568,1.94183-.78119,3.12478-.46872,2.41054-.64728,3.70509l-.40176,2.76766c-.02232.24552.08928.37944.31248.42408ZM70.96909,264.51249c-.17856-1.36151-.84815-1.80791-2.03111-1.31687-.69192.29016-.73655.64728-.1116,1.07135l1.22759.82583c.71424.49104,1.02671.29016.91511-.58032ZM68.42463,268.9095c.37944-.37944.24552-.91511-.4464-1.56239-.69192-.6696-1.22759-.80351-1.60703-.40176-.37944.37944-.2232.91511.46872,1.56239.69192.6696,1.22759.80351,1.58471.40176ZM152.61508,277.81512c-2.16503-.08928-4.37469-.53568-6.62899-1.31687-3.10246-1.11599-6.2942-.40176-9.57521-.42408-3.72741,0-3.83901.64728-.3348,1.91951,4.37469,1.58471,8.63778,3.68277,12.78927,6.27188.37944.24552.69192.17856.93743-.20088l3.32566-5.24516c.13392-.20088.15624-.42408.02232-.64728-.1116-.2232-.29016-.35712-.53568-.35712ZM110.69841,316.60701l3.39262-2.45518c.17856-.13392.20088-.29016.06696-.46872l-.1116-.15624c-.40176-.558-.93743-.91511-1.62935-1.02671-.6696-.13392-1.27223,0-1.83023.40176-.53568.37944-.84815.91511-.93743,1.60703-.08928.6696.06696,1.29455.46872,1.85255l.1116.17856c.13392.17856.29016.20088.46872.06696ZM152.21333,329.68644c.26784-.04464.4464-.3348.58032-.87047.1116-.558.1116-1.18295,0-1.89719-.1116-.73655-.29016-1.33919-.558-1.83023-.26784-.46872-.51336-.69192-.78119-.6696-.26784.04464-.46872.3348-.58032.87047s-.1116,1.18295-.02232,1.89719c.1116.73655.29016,1.33919.558,1.83023.26784.46872.53568.69192.80351.6696ZM151.78925,335.936c.02232-.51336-.2232-.78119-.73655-.80351h-.2232c-.51336-.02232-.78119.2232-.80351.75887l-.3348,8.7717c0,.51336.24552.80351.75887.80351l.2232.02232c.51336.02232.78119-.24552.80351-.75887l.31248-8.79402Z"/><path class="cls-1" d="M115.8543,78.45426c6.47276-9.08418,20.04322-14.5079,28.32388-4.39701.29016.35712.26784.69192-.08928.98207-3.5935,3.12478-7.61107,4.93269-12.00808,5.44604-5.42372.64728-10.84745,1.24991-16.31581,1.80791-.29016.02232-.53568-.06696-.75887-.26784-.20088-.2232-.29016-.46872-.24552-.75887.1116-1.00439.46872-1.94183,1.09367-2.8123Z"/><path class="cls-7" d="M158.61912,90.06058l-17.90052,86.1546c-.08928.42408-.3348.62496-.75887.64728l-3.41494.06696c-.42408-1.56239-.35712-2.94622.20088-4.17381.17856-.35712.26784-.75887.24552-1.16063-.02232-1.18295.08928-2.29894.3348-3.39262.558-2.61142.89279-5.26748.98207-8.01282.04464-1.54007.37944-2.99086.98207-4.41933,1.24991-2.90158,2.12039-5.8478,2.5891-8.79402.4464-2.8123.95975-5.513,1.49543-8.1021.58032-2.72302,1.07135-5.46836,1.47311-8.23602.60264-4.08453,1.45079-8.01282,2.49982-11.78488.58032-1.98647.558-4.03989,1.38383-5.9594.60264-1.40615.98207-2.85694,1.13831-4.37469.26784-2.45518.60264-4.91037,1.00439-7.34323.02232-.08928.04464-.13392.13392-.15624s.20088-.04464.3348-.06696c.06696,0,.1116-.04464.1116-.1116.04464-2.5891.46872-5.11124,1.27223-7.52179.20088-.58032.15624-1.13831-.08928-1.67399-.08928-.17856-.04464-.26784.15624-.29016.1116-.02232.24552,0,.3348.06696.17856.08928.29016.2232.35712.42408.35712,1.27223.2232,2.41054-.42408,3.41494-.17856.24552-.2232.51336-.15624.80351.17856.87047.1116,1.65167-.20088,2.3659-.31248.75887-.49104,1.54007-.558,2.41054-.1116,1.40615-.17856,2.83462-.20088,4.30773q0,.04464.04464.06696c.02232,0,.02232-.02232.04464-.04464.82583-3.45958,1.65167-7.07539,2.4775-10.9144.40176-1.80791.06696-3.19174-.98207-4.10685l5.08892-.08928Z"/><path class="cls-7" d="M161.00735,89.92666l7.52179.60264-24.01615,86.86884c-.46872,1.71863-.87047,1.69631-1.18295-.06696-.06696-.40176.04464-1.24991.29016-2.52214,5.82548-28.32388,11.60632-56.60313,17.38716-84.88237Z"/><path class="cls-1" d="M153.5302,90.14986c1.04903.91511,1.38383,2.29894.98207,4.10685-.82583,3.83901-1.65167,7.45483-2.4775,10.9144-.02232.02232-.02232.04464-.04464.04464q-.04464-.02232-.04464-.06696c.02232-1.47311.08928-2.90158.20088-4.30773.06696-.87047.24552-1.65167.558-2.41054.31248-.71424.37944-1.49543.20088-2.3659-.06696-.29016-.02232-.558.15624-.80351.64728-1.00439.78119-2.14271.42408-3.41494-.06696-.20088-.17856-.3348-.35712-.42408-.08928-.06696-.2232-.08928-.3348-.06696-.20088.02232-.24552.1116-.15624.29016.24552.53568.29016,1.09367.08928,1.67399-.80351,2.41054-1.22759,4.93269-1.27223,7.52179,0,.06696-.04464.1116-.1116.1116-.13392.02232-.24552.04464-.3348.06696s-.1116.06696-.13392.15624c-.40176,2.43286-.73655,4.88805-1.00439,7.34323-.15624,1.51775-.53568,2.96854-1.13831,4.37469-.82583,1.91951-.80351,3.97293-1.38383,5.9594-1.04903,3.77205-1.89719,7.70035-2.49982,11.78488-.40176,2.76766-.89279,5.513-1.47311,8.23602-.53568,2.5891-1.04903,5.2898-1.49543,8.1021-.46872,2.94622-1.33919,5.89244-2.5891,8.79402-.60264,1.42847-.93743,2.87926-.98207,4.41933-.08928,2.74534-.42408,5.4014-.98207,8.01282-.24552,1.09367-.35712,2.20966-.3348,3.39262.02232.40176-.06696.80351-.24552,1.16063-.558,1.22759-.62496,2.61142-.20088,4.17381-2.18734,1.24991-3.19174,2.72302-3.0355,4.41933-1.83023,1.54007-2.63374,3.99525-2.41054,7.32091.24552,3.97293.60264,7.90123,1.04903,11.78488.04464.24552.17856.4464.40176.58032.26784.13392.31248.31248.17856.58032-.51336,1.02671-.84815,2.05343-1.00439,3.0355-.06696.37944.02232.69192.29016,1.00439.3348.37944.75887.42408,1.27223.17856l-4.12917,6.31652c-.24552.37944-.558.60264-.98207.6696l-6.22724,1.29455c-.71424.15624-1.36151,0-1.94183-.4464-1.87487-1.45079-3.81669-2.9239-5.82548-4.39701-4.01757-2.99086-2.85694-9.41897-3.61582-13.77134-.98207-5.69156-1.91951-11.2492-2.78998-16.6506-.13392-.82583.20088-1.31687,1.04903-1.47311,6.78523-1.20527,9.39666-6.87451,11.6956-12.58839,2.41054-6.00404,12.45447-8.14674,11.18224-15.22213-.87047-4.88805-1.83023-9.35202-2.85694-13.43655-1.13831-4.55325-3.21406-8.03514-6.20492-10.42337-10.02161-7.94587-24.41791-10.24481-34.70736-1.78559-3.83901,3.19174-7.03075,6.71827-9.12882,11.3608-2.29894,5.13356-3.70509,10.31177-4.19613,15.53461-1.78559-.80351-2.41054.49104-1.91951,3.86133.06696.4464.24552.82583.53568,1.13831.35712.40176.49104.84815.4464,1.38383-.06696.4464.08928.84815.42408,1.16063l1.00439.93743c-.40176.69192-.98207,1.22759-1.71863,1.60703-.29016-.04464-.42408-.13392-.40176-.26784.17856-.89279.06696-1.71863-.3348-2.45518-.78119-1.51775-1.02671-3.01318-.73655-4.50861.24552-1.29455.2232-2.56678-.04464-3.81669-.15624-.6696-.29016-.6696-.40176.02232-.49104,2.96854-.42408,5.91476.15624,8.86098.08928.4464,0,.87047-.24552,1.27223-1.38383,2.18734-2.9239,4.39701-4.64253,6.60667-1.27223,1.62935-2.29894,3.21406-3.12478,4.77645-.82583,1.58471-1.74095,3.2587-2.74534,4.99965-1.07135,1.87487-1.18295,4.33005-2.20966,6.33884-.558,1.07135-.93743,2.14271-1.18295,3.23638-.2232.98207-.49104,1.94183-.82583,2.87926-1.47311,4.06221-1.74095,8.50386-.84815,13.32495.17856.82583-.2232,1.62935-.1116,2.34358.78119,5.98172,1.33919,11.82952,1.65167,17.52108.08928,1.78559.3348,3.52654.69192,5.20052.37944,1.78559.51336,3.54886.40176,5.26748-.04464.4464.04464.84815.2232,1.24991,1.40615,2.85694,1.98647,5.66924,1.74095,8.39226-.17856,2.05343-.53568,4.15149-1.11599,6.31652-.58032,2.23198-.91511,4.37469-1.02671,6.42812-.24552,4.84341-.24552,9.88769.02232,15.08822.13392,2.90158,1.60703,5.53532,3.86133,7.34323,1.78559,1.42847,3.10246,3.1471,4.01757,5.13356.17856.40176.2232.82583.13392,1.24991-.73655,4.03989-.31248,7.54411,1.29455,10.53497,1.11599,2.12039,2.05343,2.03111,2.8123-.24552.37944-1.18295.84815-2.32126,1.45079-3.43726.64728-1.22759,1.20527-2.54446,1.65167-3.97293.46872-1.49543,1.18295-2.8123,2.14271-3.99525.42408.75887.60264,1.24991.558,1.47311-1.33919,4.75413-2.3659,7.83427-3.08014,9.26274-1.04903,2.05343-.60264,3.43726,1.33919,4.12917.40176.15624.71424.42408.93743.78119,4.08453,7.00843,9.39666,12.58839,15.93637,16.73988,2.74534,1.74095,5.71388,2.23198,8.72706,3.2587.37944.13392.71424.3348.98207.62496l3.88365,4.03989c.2232.2232.49104.35712.82583.42408,1.87487.31248,3.19174.40176,5.1782-.3348,3.39262-1.27223,6.96379-.62496,10.73585,1.91951-1.91951,2.3659-4.44165,4.26309-7.54411,5.7362-.64728.31248-1.02671.80351-1.13831,1.51775-.13392.71424.06696,1.31687.58032,1.80791.62496.60264,1.13831,1.38383,1.56239,2.3659l-2.83462-2.74534c-.20088-.20088-.46872-.3348-.75887-.42408-.29016-.06696-.558-.06696-.84815.02232-.29016.06696-.558.2232-.75887.42408-.2232.2232-.35712.46872-.4464.75887-1.42847,5.13356,1.02671,6.87451,3.77205,10.40105,1.18295,1.54007,2.49982,3.0355,3.95061,4.46397,2.09807,2.05343,4.59789,3.41494,7.49947,4.10685.31248.06696.60264.2232.87047.4464,3.34798,3.0355,6.62899,6.071,9.79841,9.08418,1.91951,1.87487,2.76766,4.15149,2.52214,6.87451-.91511,9.88769-2.03111,19.97626-3.34798,30.26571-.2232,1.80791-.60264,3.74973-1.09367,5.8478-.4464,1.87487-.69192,3.90597-.73655,6.071-14.97662-8.45922-29.81931-19.6861-44.50577-33.68065-23.34656-22.25289-39.79629-48.8135-49.30454-79.70417-7.87891-25.6455-9.68681-52.34004-5.42372-80.06129,1.11599-7.20931,3.01318-14.32934,5.69156-21.33777,6.45044-16.96308,11.60632-34.95288,21.18153-49.46078,16.07029-24.37327,39.68469-43.4121,67.27202-52.78644,7.81195-2.65606,16.44973-4.24077,25.91334-4.75413ZM71.57172,144.94508c.02232-.24552-.04464-.29016-.24552-.15624-.558.35712-.84815.84815-.89279,1.47311-.20088,3.86133-.13392,8.50386.20088,13.90526.02232.08928.04464.1116.08928.02232.02232-.04464.06696-.06696.1116-.08928.08928-.02232.15624-.08928.13392-.20088-.31248-5.11124-.1116-10.08857.60264-14.9543Z"/><path class="cls-1" d="M170.93968,91.42209c8.14674,1.87487,15.26677,4.57557,21.04761,11.00368,3.79437,4.19613,7.70035,8.7717,9.28506,14.26238,2.12039,7.34323,2.9239,14.55254,2.43286,21.62793-1.36151,19.17275-1.56239,35.57783-.60264,49.21526.35712,5.04429,1.33919,9.99929,2.90158,14.82038,3.90597,11.9188,8.63778,22.65464,14.21774,32.20754,12.07504,20.62354,27.96677,38.97045,45.42089,57.83072,4.41933,4.77645,9.44129,8.36994,13.74903,13.01247,12.69999,13.74903,23.5028,28.63636,30.42195,45.62176,4.26309,10.37873,4.55325,20.37802,2.23198,31.40402-1.62935,7.78963-5.89244,15.48997-10.02161,22.40913-1.96415,3.2587-4.39701,6.11564-7.32091,8.57082-18.25763,15.37837-40.19804,22.56536-64.05796,24.21703-10.80281.75887-20.73514.37944-29.73003-1.13831-5.80316-.95975-14.15078-3.41494-24.99823-7.36555-9.06186-3.30334-18.23531-6.67363-27.47573-10.13321.15624-3.01318.4464-6.2942.87047-9.84305.4464-3.77205.73655-7.05307.87047-9.86537,1.16063-21.02529,2.99086-41.98363,5.513-62.87501.02232-.35712.17856-.75887.4464-1.20527.26784.62496.40176,1.31687.42408,2.07575,0,.58032.20088.6696.64728.26784,1.62935-1.49543,3.63813-1.47311,6.04868.06696.60264.40176,1.24991.64728,1.94183.73655.40176.06696.75887.20088,1.09367.40176l8.97258,5.35676c.58032.3348,1.02671.82583,1.29455,1.45079.62496,1.36151,1.24991,2.74534,1.85255,4.12917.98207,2.2543,2.65606,4.12917,4.99965,5.6246,1.09367.71424,2.23198.98207,3.39262.82583,1.36151-.17856,2.65606-.4464,3.90597-.82583.40176-.1116.80351-.13392,1.22759-.02232,1.65167.37944,2.99086,1.11599,3.99525,2.16503,2.38822,2.52214,4.99965,5.13356,7.81195,7.85659,1.24991,1.22759,2.94622,1.62935,3.97293,3.01318.29016.37944.62496.64728,1.04903.82583,1.02671.46872,1.98647,1.04903,2.85694,1.74095.91511.69192,1.83023,1.33919,2.74534,1.98647,2.05343,1.40615,4.10685,2.78998,6.1826,4.15149,2.05343,1.31687,4.15149,2.5891,6.33884,3.77205,3.61582,1.98647,7.12003,4.17381,10.51265,6.60667,4.84341,3.43726-2.18734,10.06625,6.36116,12.76695,1.83023.58032,3.32566,2.00879,4.75413,3.23638.31248.29016.558.64728.71424,1.07135.26784.71424.73655,1.24991,1.40615,1.60703.42408.2232.75887.51336,1.04903.87047,1.65167,2.03111,3.30334,4.08453,4.97733,6.16028.69192.84815,1.56239,1.58471,2.5891,2.16503,1.07135.58032,2.18734.91511,3.32566.93743,2.07575.06696,4.10685-.31248,6.09332-1.13831,2.90158-1.20527,5.57996-2.76766,8.01282-4.73181,1.62935-1.29455,3.30334-2.14271,5.0666-2.56678,1.98647-.49104,4.01757-.93743,6.04868-1.33919.37944-.06696.71424-.24552.95975-.558.3348-.42408.82583-.6696,1.40615-.73655.37944-.02232.69192-.15624.98207-.37944l6.42812-4.88805c.13392-.06696.15624-.17856.08928-.29016-.06696-.13392-.17856-.17856-.31248-.08928-.3348.15624-.73655.2232-1.16063.20088-.37944-.04464-.69192.1116-.91511.4464-.17856.29016-.40176.42408-.6696.42408-1.13831,0-1.18295-.2232-.15624-.69192,1.20527-.51336,1.85255-1.31687,1.91951-2.38822,4.24077-3.45958,7.81195-7.67803,10.66889-12.63303,1.36151-2.3659,1.96415-5.04429,1.83023-8.01282-.02232-.60264-.26784-1.09367-.71424-1.49543-2.65606-2.29894-6.33884-3.32566-9.75377-1.67399-3.97293,1.91951-8.41458,2.85694-13.30263,2.78998-4.39701-.06696-8.97258.17856-13.72671.73655-.60264.06696-1.04903-.15624-1.31687-.69192-.4464-.87047-.26784-1.33919.49104-1.45079.46872-.04464.82583-.24552,1.07135-.60264.08928-.13392.13392-.26784.1116-.42408-.06696-.24552-.2232-.40176-.46872-.4464-.95975-.2232-1.74095.08928-2.34358.89279-.29016.40176-.69192.558-1.18295.46872s-.80351-.35712-.95975-.84815l-1.71863-5.8478c-.15624-.60264-.558-.80351-1.16063-.58032l-.51336.20088c-.69192.26784-.95975.75887-.80351,1.47311.558,2.38822,1.80791,4.21845,3.77205,5.46836.51336.3348.558.71424.13392,1.16063-.558.53568-1.20527.69192-1.94183.4464-9.95465-3.08014-18.16835-8.39226-24.59647-15.93637-6.96379-8.16906-13.79366-16.13725-20.51194-23.85992-1.96415-2.29894-4.15149-4.10685-2.7007-7.27627.49104-1.04903.35712-2.03111-.42408-2.90158-1.18295-1.38383-1.96415-2.90158-2.34358-4.57557-.46872-2.07575-2.16503-3.34798-4.12917-3.88365-.62496-.17856-1.07135-.558-1.36151-1.13831-2.3659-4.91037-5.0666-7.23163-10.51265-9.70913-8.5485-3.83901-17.11932-7.61107-25.73478-11.33848,1.04903-.58032,1.69631-1.51775,1.96415-2.76766.13392-.558.40176-.95975.87047-1.27223.78119-.49104,1.42847-1.20527,1.89719-2.16503.2232-.4464.58032-.78119,1.02671-1.00439,4.53093-2.16503,8.86098-4.44165,12.99015-6.85219,3.63813-2.09807,5.57996-4.75413,5.78084-7.94587,1.29455-1.58471,2.00879-2.90158,2.09807-3.92829.60264-5.82548.6696-11.31616.17856-16.47205-.62496-6.60667-6.62899-9.35202-12.52143-10.69121-6.36116-1.47311-12.54375-2.20966-18.54779-2.23198-.40176-.02232-.71424-.17856-.95975-.46872-.24552-.31248-.3348-.6696-.24552-1.04903.20088-1.00439.558-1.91951,1.07135-2.76766.24552-.42408.2232-.80351-.08928-1.16063-.3348-.37944-.73655-.46872-1.20527-.20088-.64728.37944-1.29455.42408-1.89719.15624-.53568-.24552-.82583-.64728-.84815-1.22759-.2232-5.33444-.73655-10.95904-1.56239-16.8738-1.24991-8.83866-2.23198-17.94516-5.26748-26.3151-.78119-2.18734-1.91951-4.03989-3.45958-5.60228-.29016-.29016-.6696-.49104-1.09367-.53568-1.76327-.20088-3.23638-.60264-4.41933-1.16063-.69192-.3348-1.18295-.84815-1.51775-1.56239-.31248-.69192-.35712-1.40615-.15624-2.16503l24.61879-88.11875Z"/><path class="cls-7" d="M71.57172,144.94508c-.71424,4.86573-.91511,9.84305-.60264,14.9543.02232.1116-.04464.17856-.13392.20088-.04464.02232-.08928.04464-.1116.08928-.04464.08928-.06696.06696-.08928-.02232-.3348-5.4014-.40176-10.04393-.20088-13.90526.04464-.62496.3348-1.11599.89279-1.47311.20088-.13392.26784-.08928.24552.15624Z"/><path class="cls-7" d="M73.37963,160.90377c-5.89244,7.45483-9.24042,15.82477-11.96344,24.68575-1.62935,5.33444-1.36151,11.51704-.46872,17.097.89279,5.37908,1.40615,10.80281,1.58471,16.22653.17856,5.64692,1.74095,11.29384,3.2587,16.58365.69192,2.34358-.13392,3.99525.02232,6.31652.04464.40176-.04464.75887-.2232,1.11599-3.0355,6.071-3.74973,12.16432-2.16503,18.25763.37944,1.42847.24552,2.76766-.37944,4.03989-.17856.40176-.26784.82583-.2232,1.27223.35712,3.12478,1.94183,5.1782,4.75413,6.20492l3.5935,3.70509.82583,1.78559c.06696,2.54446-.91511,4.55325-2.96854,6.071-.37944.26784-.62496.64728-.71424,1.11599-.15624.73655.2232,1.20527,1.07135,1.40615.53568.1116.95975-.06696,1.22759-.53568l3.4819-5.89244c.73655.4464,1.24991,1.20527,1.54007,2.23198-.95975,1.18295-1.67399,2.49982-2.14271,3.99525-.4464,1.42847-1.00439,2.74534-1.65167,3.97293-.60264,1.11599-1.07135,2.2543-1.45079,3.43726-.75887,2.27662-1.69631,2.3659-2.8123.24552-1.60703-2.99086-2.03111-6.49508-1.29455-10.53497.08928-.42408.04464-.84815-.13392-1.24991-.91511-1.98647-2.23198-3.70509-4.01757-5.13356-2.2543-1.80791-3.72741-4.44165-3.86133-7.34323-.26784-5.20052-.26784-10.24481-.02232-15.08822.1116-2.05343.4464-4.19613,1.02671-6.42812.58032-2.16503.93743-4.26309,1.11599-6.31652.24552-2.72302-.3348-5.53532-1.74095-8.39226-.17856-.40176-.26784-.80351-.2232-1.24991.1116-1.71863-.02232-3.4819-.40176-5.26748-.35712-1.67399-.60264-3.41494-.69192-5.20052-.31248-5.69156-.87047-11.53936-1.65167-17.52108-.1116-.71424.29016-1.51775.1116-2.34358-.89279-4.82109-.62496-9.26274.84815-13.32495.3348-.93743.60264-1.89719.82583-2.87926.24552-1.09367.62496-2.16503,1.18295-3.23638,1.02671-2.00879,1.13831-4.46397,2.20966-6.33884,1.00439-1.74095,1.91951-3.41494,2.74534-4.99965.82583-1.56239,1.85255-3.1471,3.12478-4.77645,1.71863-2.20966,3.2587-4.41933,4.64253-6.60667.24552-.40176.3348-.82583.24552-1.27223-.58032-2.94622-.64728-5.89244-.15624-8.86098.1116-.69192.24552-.69192.40176-.02232.26784,1.24991.29016,2.52214.04464,3.81669-.29016,1.49543-.04464,2.99086.73655,4.50861.40176.73655.51336,1.56239.3348,2.45518-.02232.13392.1116.2232.40176.26784Z"/><path class="cls-7" d="M74.60722,150.8152c1.31687,2.3659,2.72302,4.21845,4.24077,5.513.2232.20088.31248.42408.29016.71424-.04464.29016-.20088.49104-.4464.60264l-3.5935,1.65167-1.00439-.93743c-.3348-.31248-.49104-.71424-.42408-1.16063.04464-.53568-.08928-.98207-.4464-1.38383-.29016-.31248-.46872-.69192-.53568-1.13831-.49104-3.3703.13392-4.66485,1.91951-3.86133Z"/><path class="cls-7" d="M137.14743,181.41571c-.58032.15624-.89279-.06696-.91511-.69192-.08928-1.54007.98207-2.14271,3.16942-1.80791.3348.06696.53568.24552.60264.58032.08928.31248-.02232.58032-.29016.75887-.71424.51336-1.56239.91511-2.56678,1.16063Z"/><path class="cls-7" d="M104.73901,181.14787l1.94183,13.70439c.02232.2232-.06696.35712-.26784.4464-.20088.06696-.37944.02232-.49104-.17856l-4.75413-7.9905c-.08928-.1116-.08928-.24552-.02232-.37944l2.83462-5.71388c.08928-.17856.2232-.24552.42408-.2232.20088.04464.31248.15624.3348.3348Z"/><path class="cls-7" d="M133.5093,181.34875c.78119,1.91951.82583,4.64253.15624,8.12442-.46872,2.49982.37944,4.17381,2.52214,5.02197.62496.26784.89279.73655.78119,1.40615-.558,3.95061-1.78559,7.25395-3.68277,9.93233-.51336.24552-.93743.20088-1.27223-.17856-.26784-.31248-.35712-.62496-.29016-1.00439.15624-.98207.49104-2.00879,1.00439-3.0355.13392-.26784.08928-.4464-.17856-.58032-.2232-.13392-.35712-.3348-.40176-.58032-.4464-3.88365-.80351-7.81195-1.04903-11.78488-.2232-3.32566.58032-5.78084,2.41054-7.32091Z"/><path class="cls-7" d="M135.8752,192.99971c-.42408-.08928-.71424-.51336-.84815-1.22759-.15624-.73655-.08928-1.54007.13392-2.45518.24552-.89279.58032-1.62935,1.07135-2.20966.46872-.558.91511-.78119,1.33919-.6696s.71424.53568.84815,1.24991c.15624.71424.08928,1.54007-.13392,2.43286-.24552.91511-.58032,1.65167-1.04903,2.20966-.49104.558-.93743.78119-1.36151.6696Z"/><path class="cls-1" d="M150.00366,190.72308c-.06696-.2232-.06696-.46872-.04464-.71424.04464-.42408.26784-.73655.6696-.91511s.78119-.15624,1.13831.1116c2.52214,1.76327,3.54886,4.70949,3.99525,7.67803,1.94183,13.16871,3.50422,26.4267,4.66485,39.79629.02232.31248-.1116.51336-.42408.62496-3.92829,1.18295-9.48593,2.12039-12.85623-1.20527-3.19174-3.1471-6.2942-6.38348-9.30738-9.66449-.42408-.4464-.51336-.95975-.31248-1.54007,1.07135-2.87926,1.42847-5.98172,1.04903-9.30738-.08928-.73655.15624-1.33919.71424-1.80791,1.07135-.91511,1.76327-2.07575,2.07575-3.50422.24552-1.09367-.1116-1.91951-1.09367-2.45518-1.07135-.60264-1.38383-1.49543-.95975-2.65606l3.70509-9.84305c.15624-.35712.37944-.6696.71424-.89279,1.78559-1.22759,3.77205-2.20966,5.89244-2.96854.35712-.13392.49104-.37944.37944-.73655Z"/><path class="cls-1" d="M145.91913,191.21412c.13392.3348-.24552.69192-1.13831,1.07135-.89279.40176-1.40615.42408-1.56239.08928-.13392-.31248.24552-.69192,1.13831-1.07135.89279-.40176,1.40615-.42408,1.56239-.08928Z"/><path class="cls-7" d="M132.79506,215.76595l-.71424,2.74534c-.04464.20088-.17856.35712-.37944.4464-.2232.06696-.42408.06696-.62496-.04464l-.80351-.51336c-.42408-.24552-.51336-.58032-.31248-1.02671.46872-1.00439,1.18295-1.71863,2.12039-2.18734.6696-.31248.89279-.13392.71424.58032Z"/><path class="cls-7" d="M64.54097,258.73165c-.2232-.04464-.3348-.17856-.31248-.42408l.40176-2.76766c.17856-1.29455.40176-2.52214.64728-3.70509s.51336-2.23198.78119-3.12478.53568-1.58471.78119-2.05343.46872-.69192.6696-.6696l.08928.02232c.20088.02232.35712.29016.46872.82583.1116.51336.17856,1.24991.20088,2.16503,0,.93743-.04464,2.00879-.13392,3.21406-.08928,1.22759-.24552,2.4775-.42408,3.77205l-.40176,2.76766c-.02232.24552-.15624.3348-.40176.31248l-2.3659-.3348Z"/><path class="cls-1" d="M70.96909,264.51249c.1116.87047-.20088,1.07135-.91511.58032l-1.22759-.82583c-.62496-.42408-.58032-.78119.1116-1.07135,1.18295-.49104,1.85255-.04464,2.03111,1.31687Z"/><path class="cls-1" d="M68.42463,268.9095c-.35712.40176-.89279.26784-1.58471-.40176-.69192-.64728-.84815-1.18295-.46872-1.56239.37944-.40176.91511-.26784,1.60703.40176.69192.64728.82583,1.18295.4464,1.56239Z"/><path class="cls-1" d="M71.16997,276.40897l-3.5935-3.70509c1.27223-.75887,2.34358-1.13831,3.2587-1.13831.40176,0,.71424.15624.93743.51336.2232.3348.26784.69192.08928,1.07135-.71424,1.65167-.93743,2.74534-.69192,3.2587Z"/><path class="cls-7" d="M196.76374,273.79755c-.20088,3.19174-2.14271,5.8478-5.78084,7.94587-4.12917,2.41054-8.45922,4.68717-12.99015,6.85219-.4464.2232-.80351.558-1.02671,1.00439-.46872.95975-1.11599,1.67399-1.89719,2.16503-.46872.31248-.73655.71424-.87047,1.27223-.26784,1.24991-.91511,2.18734-1.96415,2.76766-.87047-.02232-1.47311-.2232-1.80791-.62496-.26784-.31248-.26784-.62496,0-.93743l9.86537-11.65096c.37944-.42408.80351-.75887,1.29455-1.02671l15.1775-7.76731Z"/><path class="cls-7" d="M152.61508,277.81512c.24552,0,.42408.13392.53568.35712.13392.2232.1116.4464-.02232.64728l-3.32566,5.24516c-.24552.37944-.558.4464-.93743.20088-4.15149-2.5891-8.41458-4.68717-12.78927-6.27188-3.50422-1.27223-3.39262-1.91951.3348-1.91951,3.28102.02232,6.47276-.69192,9.57521.42408,2.2543.78119,4.46397,1.22759,6.62899,1.31687Z"/><path class="cls-1" d="M71.9958,278.19456c.31248,1.31687,1.02671,2.03111,2.09807,2.16503l-3.4819,5.89244c-.26784.46872-.69192.64728-1.22759.53568-.84815-.20088-1.22759-.6696-1.07135-1.40615.08928-.46872.3348-.84815.71424-1.11599,2.05343-1.51775,3.0355-3.52654,2.96854-6.071Z"/><path class="cls-7" d="M76.19193,284.06468c3.05782,9.68681,8.48154,17.4318,16.29349,23.2796,3.92829,2.9239,8.48154,4.21845,13.63743,3.81669.35712-.02232.6696.08928.91511.3348.26784.24552.40176.558.37944.91511l-.1116,4.57557c0,.4464.13392.84815.4464,1.18295s.69192.51336,1.13831.53568c2.32126.13392,4.33005-.84815,6.02636-2.94622.95975-1.18295,2.43286-1.65167,3.68277-.60264.49104.40176,1.02671.71424,1.62935.91511,3.1471,1.04903,6.33884,1.78559,9.57521,2.16503.35712.04464.62496.2232.78119.53568.15624.3348.13392.64728-.06696.95975-.71424,1.13831-1.80791,1.96415-3.30334,2.4775-1.60703.58032-3.4819,1.47311-5.55764,2.7007-3.77205-2.54446-7.34323-3.19174-10.73585-1.91951-1.98647.73655-3.30334.64728-5.1782.3348-.3348-.06696-.60264-.20088-.82583-.42408l-3.88365-4.03989c-.26784-.29016-.60264-.49104-.98207-.62496-3.01318-1.02671-5.98172-1.51775-8.72706-3.2587-6.53971-4.15149-11.85184-9.73145-15.93637-16.73988-.2232-.35712-.53568-.62496-.93743-.78119-1.94183-.69192-2.38822-2.07575-1.33919-4.12917.71424-1.42847,1.74095-4.50861,3.08014-9.26274Z"/><path class="cls-1" d="M12.15629,299.55465c5.31212,13.12407,10.86976,25.57854,18.61475,37.83214,1.16063,1.83023,1.40615,3.70509.71424,5.57996-.17856.53568-.53568.93743-1.02671,1.18295-1.87487.98207-3.79437,1.27223-5.78084.91511-12.87855-2.41054-21.44937-19.26203-23.97151-31.04691-1.00439-4.68717-.93743-9.26274.20088-13.72671.91511-3.4819,3.34797-7.18699,7.41018-5.11124,1.74095.89279,3.01318,2.3659,3.83902,4.37469Z"/><path class="cls-1" d="M301.26526,301.45184c16.67292,5.66924,25.8687,16.78452,27.63197,33.34585.06696.62496-.08928,1.18295-.46872,1.67399-3.97293,5.33444-7.45483,2.56678-10.53497-1.29455-8.05746-10.15553-17.14164-19.08347-27.29717-26.80613-1.51775-1.16063-2.16503-3.4819-.91511-5.13356,3.08014-4.08453,7.45483-3.19174,11.584-1.78559Z"/><path class="cls-7" d="M110.69841,316.60701c-.17856.13392-.3348.1116-.46872-.06696l-.1116-.17856c-.40176-.558-.558-1.18295-.46872-1.85255.08928-.69192.40176-1.22759.93743-1.60703.558-.40176,1.16063-.53568,1.83023-.40176.69192.1116,1.22759.46872,1.62935,1.02671l.1116.15624c.13392.17856.1116.3348-.06696.46872l-3.39262,2.45518Z"/><path class="cls-1" d="M152.21333,329.68644c-.26784.02232-.53568-.20088-.80351-.6696-.26784-.49104-.4464-1.09367-.558-1.83023-.08928-.71424-.08928-1.36151.02232-1.89719s.31248-.82583.58032-.87047c.26784-.02232.51336.20088.78119.6696.26784.49104.4464,1.09367.558,1.83023.1116.71424.1116,1.33919,0,1.89719-.13392.53568-.31248.82583-.58032.87047Z"/><path class="cls-7" d="M296.37721,397.49413c-.06696,1.07135-.71424,1.87487-1.91951,2.38822-1.02671.46872-.98207.69192.15624.69192.26784,0,.49104-.13392.6696-.42408.2232-.3348.53568-.49104.91511-.4464.42408.02232.82583-.04464,1.16063-.20088.13392-.08928.24552-.04464.31248.08928.06696.1116.04464.2232-.08928.29016l-6.42812,4.88805c-.29016.2232-.60264.35712-.98207.37944-.58032.06696-1.07135.31248-1.40615.73655-.24552.31248-.58032.49104-.95975.558-2.03111.40176-4.06221.84815-6.04868,1.33919-1.76327.42408-3.43726,1.27223-5.0666,2.56678-2.43286,1.96415-5.11124,3.52654-8.01282,4.73181-1.98647.82583-4.01757,1.20527-6.09332,1.13831-1.13831-.02232-2.2543-.35712-3.32566-.93743-1.02671-.58032-1.89719-1.31687-2.5891-2.16503-1.67399-2.07575-3.32566-4.12917-4.97733-6.16028-.29016-.35712-.62496-.64728-1.04903-.87047-.6696-.35712-1.13831-.89279-1.40615-1.60703-.15624-.42408-.40176-.78119-.71424-1.07135-1.42847-1.22759-2.9239-2.65606-4.75413-3.23638-8.5485-2.7007-1.51775-9.3297-6.36116-12.76695-3.39262-2.43286-6.89683-4.62021-10.51265-6.60667-2.18734-1.18295-4.28541-2.45518-6.33884-3.77205-2.07575-1.36151-4.12917-2.74534-6.1826-4.15149-.91511-.64728-1.83023-1.29455-2.74534-1.98647-.87047-.69192-1.83023-1.27223-2.85694-1.74095-.42408-.17856-.75887-.4464-1.04903-.82583-1.02671-1.38383-2.72302-1.78559-3.97293-3.01318-2.8123-2.72302-5.42372-5.33444-7.81195-7.85659-1.00439-1.04903-2.34358-1.78559-3.99525-2.16503-.42408-.1116-.82583-.08928-1.22759.02232-1.24991.37944-2.54446.64728-3.90597.82583-1.16063.15624-2.29894-.1116-3.39262-.82583-2.34358-1.49543-4.01757-3.3703-4.99965-5.6246-.60264-1.38383-1.22759-2.76766-1.85255-4.12917-.26784-.62496-.71424-1.11599-1.29455-1.45079l-8.97258-5.35676c-.3348-.20088-.69192-.3348-1.09367-.40176-.69192-.08928-1.33919-.3348-1.94183-.73655-2.41054-1.54007-4.41933-1.56239-6.04868-.06696-.4464.40176-.64728.31248-.64728-.26784-.02232-.75887-.15624-1.45079-.42408-2.07575l.73655-1.51775c.17856-.40176.15624-.78119-.06696-1.16063-.6696-1.07135-.6696-2.07575-.02232-3.05782.29016-.4464.42408-.93743.40176-1.45079l-.02232-.62496c-.02232-.558.24552-.80351.80351-.71424,1.91951.35712,3.83901.60264,5.46836,1.58471,3.63813,2.23198,7.25395,4.39701,10.82513,6.49508,2.63374,1.56239,5.4014,2.38822,8.30298,3.23638.82583.2232,1.16063.75887.95975,1.60703l-.95975,4.19613c-.06696.42408-.02232.82583.20088,1.18295,1.51775,2.52214,3.5935,4.50861,6.20492,5.9594.49104.26784,1.00439.29016,1.49543.04464.73655-.3348,1.07135-.95975,1.07135-1.83023-.04464-1.07135.46872-1.71863,1.51775-1.98647l3.34798-.80351c.40176-.1116.71424.02232.93743.35712,5.4014,8.3253,12.07504,14.86502,20.04322,19.61914,9.3297,5.57996,18.61475,11.38312,27.85517,17.4318.87047.53568,2.00879,1.67399,2.65606,2.45518,1.76327,1.98647,1.29455,2.90158-1.36151,2.74534l-2.18734-.13392c-.53568-.02232-.89279.20088-1.09367.71424-.40176.98207-.3348,2.07575.2232,3.2587.20088.46872.558.73655,1.07135.80351,1.27223.15624,2.56678.04464,3.86133-.31248,1.51775-.42408,2.65606.04464,3.43726,1.38383,1.89719,3.34798,2.99086,7.07539,6.00404,9.53057,1.40615,1.16063,2.41054,2.65606,3.0355,4.53093.64728,1.96415,2.52214,3.30334,4.64253,2.63374,3.52654-1.11599,7.05307-2.45518,10.53497-3.99525.35712-.15624.62496-.40176.80351-.73655,1.45079-2.72302,3.19174-4.15149,5.24516-4.30773,5.89244-.46872,10.64657-2.09807,14.26238-4.84341Z"/><path class="cls-7" d="M115.11774,336.33776c1.87487,2.18734,3.74973,4.48629,5.64692,6.87451,2.18734,2.78998,5.04429,3.92829,8.52618,3.41494.58032-.08928,1.02671.13392,1.31687.6696,2.72302,4.97733,6.74059,8.63778,12.05272,10.95904.3348.13392.49104.40176.4464.78119l-5.57996,55.17466c-2.16503-.64728-3.77205-1.40615-4.82109-2.27662.04464-2.16503.29016-4.19613.73655-6.071.49104-2.09807.87047-4.03989,1.09367-5.8478,1.31687-10.28945,2.43286-20.37802,3.34798-30.26571.24552-2.72302-.60264-4.99965-2.52214-6.87451-3.16942-3.01318-6.45044-6.04868-9.79841-9.08418-.26784-.2232-.558-.37944-.87047-.4464-2.90158-.69192-5.4014-2.05343-7.49947-4.10685-1.45079-1.42847-2.76766-2.9239-3.95061-4.46397-2.74534-3.52654-5.20052-5.26748-3.77205-10.40105.08928-.29016.2232-.53568.4464-.75887.20088-.20088.46872-.35712.75887-.42408.29016-.08928.558-.08928.84815-.02232.29016.08928.558.2232.75887.42408l2.83462,2.74534Z"/><path class="cls-1" d="M150.8295,335.13248h.20088c.53568.02232.78119.29016.75887.80351l-.31248,8.79402c-.02232.51336-.29016.78119-.80351.75887l-.2232-.02232c-.51336,0-.75887-.29016-.75887-.80351l.3348-8.7717c.02232-.53568.29016-.78119.80351-.75887Z"/><path class="cls-7" d="M144.24514,418.69799c-.64728-1.20527-2.00879-2.20966-4.10685-3.0355l5.0666-54.81754c.08928-.78119.51336-1.18295,1.29455-1.22759l2.16503-.1116c.3348-.02232.60264.08928.82583.31248s.31248.51336.26784.82583l-5.513,58.05392Z"/></g></svg>