<?xml version="1.0" encoding="UTF-8"?><svg id="Calque_2" xmlns="http://www.w3.org/2000/svg" viewBox="0 0 1345.57131 556.70243"><defs><style>.cls-1{stroke:#ffd48b;}.cls-1,.cls-2,.cls-3{fill:none;stroke-miterlimit:3.97369;stroke-width:9.79822px;}.cls-4{fill:#fea917;}.cls-5{fill:#fff;}.cls-2{stroke:#daba84;}.cls-3{stroke:#da8f10;}.cls-6{fill:#b57509;}</style></defs><g id="Calque_1-2"><path d="M482.71828,148.42838h20.13861l48.1025,110.47467h-27.50358l-9.55144-23.36079h-42.92402l-9.20622,23.36079h-26.81313l47.75728-110.47467ZM492.03959,180.5351l-13.4641,34.29318h27.04326l-13.57916-34.29318Z"/><path d="M639.91454,177.08276c-2.41664-2.87694-5.29359-5.1785-8.861-6.67451-3.45233-1.61108-7.48006-2.30156-12.08317-2.30156s-8.861.92063-12.65856,2.64679c-3.91264,1.72617-7.24989,4.25787-10.12683,7.36497-2.87694,3.22218-5.06342,6.90467-6.6745,11.27763s-2.41664,9.09114-2.41664,14.15457c0,5.1785.80556,10.01176,2.41664,14.26964,1.61108,4.37296,3.79755,8.05544,6.6745,11.27763,2.76186,3.22218,6.09911,5.6388,9.8967,7.36497,3.79755,1.72617,7.82528,2.64679,12.19825,2.64679,4.94833,0,9.43639-1.03569,13.23395-3.1071s7.01975-4.94835,9.55144-8.74592l20.2537,15.0752c-4.7182,6.55943-10.58717,11.39269-17.83706,14.49981-7.13484,3.1071-14.61489,4.7182-22.21,4.7182-8.63083,0-16.57119-1.38093-23.82112-4.02772-7.24989-2.76186-13.57916-6.55943-18.87275-11.62286-5.29359-5.06342-9.43639-11.16254-12.42839-18.29736-2.99203-7.13482-4.48803-15.19026-4.48803-24.05125s1.496-16.80136,4.48803-24.05125c2.99203-7.13482,7.13484-13.23395,12.42839-18.29736,5.29359-5.06342,11.62286-8.86099,18.87275-11.62286,7.24989-2.64679,15.19028-4.02772,23.82112-4.02772,3.10711,0,6.32928.34524,9.78161.80554,3.33725.57539,6.6745,1.49601,10.01178,2.76186,3.22216,1.26586,6.44436,2.87694,9.43639,4.94835s5.75389,4.60311,8.05544,7.59514l-18.64265,15.4204Z"/><path d="M797.5711,148.42838h36.47967c8.861,0,17.26167,1.03569,25.20206,2.99203,7.9404,1.95632,14.84506,5.1785,20.82905,9.55146,5.98406,4.37296,10.58717,10.12685,14.15455,17.26167,3.45233,7.01975,5.1785,15.65059,5.1785,25.77742,0,8.97607-1.72617,16.80136-5.06345,23.59095s-7.9404,12.54347-13.69428,17.14658c-5.75389,4.60311-12.31334,8.17053-19.79339,10.58715-7.48006,2.41664-15.30533,3.56742-23.59095,3.56742h-39.81688v-110.47467h.11512ZM821.96761,236.46289h12.65856c5.63884,0,10.81734-.57539,15.65055-1.72617,4.83328-1.15078,8.97605-2.99203,12.54351-5.6388,3.56738-2.64679,6.32928-6.09913,8.40066-10.47209,2.07139-4.25787,2.99199-9.55146,2.99199-15.88074,0-5.40865-1.03573-10.12685-2.99199-14.15457-2.07139-4.02772-4.71816-7.2499-8.17049-9.8967s-7.48006-4.60311-12.08317-5.86897-9.43639-1.95632-14.61489-1.95632h-14.38472v65.59435Z"/><path d="M1023.23861,148.42838h36.82489l25.43216,72.0387h.34522l25.54728-72.0387h36.59479v151.32729h-24.28138v-125.54985h-.34522l-28.99962,84.69724h-18.5275l-27.96396-84.69724h-.34522v84.69724h-24.28138v-110.47467h-.00007Z"/><path d="M1192.40295,148.42838h24.28138v110.47467h-24.28138v-110.47467Z"/><polygon points="1001.25878 170.86855 1001.25878 148.42838 923.35111 148.42838 923.35111 170.86855 948.66822 170.86855 1001.25878 170.86855"/><polygon points="947.74761 236.46289 923.35111 236.46289 923.35111 258.90306 1001.25878 258.90306 1001.25878 236.46289 947.74761 236.46289"/><polygon points="1001.25878 213.90765 1001.25878 191.46749 948.66822 191.46749 923.35111 191.46749 923.35111 213.90765 948.66822 213.90765 1001.25878 213.90765"/><polygon points="1336.94069 170.86855 1336.94069 148.42838 1259.14807 148.42838 1259.14807 170.86855 1284.35013 170.86855 1336.94069 170.86855"/><polygon points="1283.42952 236.46289 1259.14807 236.46289 1259.14807 258.90306 1336.94069 258.90306 1336.94069 236.46289 1283.42952 236.46289"/><polygon points="1336.94069 213.90765 1336.94069 191.46749 1284.35013 191.46749 1259.14807 191.46749 1259.14807 213.90765 1284.35013 213.90765 1336.94069 213.90765"/><path d="M759.71052,386.86957h23.59095l-43.38434-108.63342h-20.13861l-42.00339,108.51834h21.74969l8.05544-20.48383h43.72956l8.4007,20.59892ZM729.09982,310.45792l13.57916,34.29317.57539,1.38095h-28.07897l.57539-1.38095,13.34903-34.29317Z"/><path class="cls-5" d="M890.78411,346.13204c0,6.55945-1.03573,12.54347-2.99199,18.06723-1.95634,5.52372-4.94833,10.24192-8.861,14.38472-3.91267,4.02772-8.74588,7.24989-14.61489,9.55144-5.86894,2.30156-12.54351,3.45233-20.13861,3.45233-7.71023,0-14.49977-1.15078-20.25366-3.45233-5.86894-2.30156-10.70222-5.40867-14.61489-9.55144-3.91267-4.02772-6.78962-8.861-8.861-14.38472-1.95634-5.52372-2.99199-11.50778-2.99199-18.06723v-67.89589h24.28138v66.97528c0,3.45233.57539,6.55945,1.61112,9.55144,1.03573,2.87694,2.64677,5.40867,4.60311,7.59514s4.37294,3.79755,7.13484,4.94833,5.75389,1.84125,8.97605,1.84125,6.21423-.57539,8.861-1.84125c2.64677-1.15078,5.06345-2.87694,7.01972-4.94833,1.95634-2.18647,3.56738-4.60311,4.60311-7.59514,1.03573-2.87694,1.61112-6.09911,1.61112-9.55144v-32.567h24.28138v33.48761h.34522Z"/><path class="cls-5" d="M950.16422,299.75567h-26.69806v-21.51954h77.79255v21.51954h-26.69806v123.24831h-24.28138v-123.24831h-.11505Z"/><path class="cls-5" d="M1216.68441,346.24709c0,6.55945-1.03573,12.54347-2.99199,18.06723-1.95634,5.52372-4.94833,10.24192-8.861,14.38472-3.91267,4.02772-8.74588,7.24989-14.61489,9.55144-5.86894,2.30156-12.54351,3.45233-20.13861,3.45233-7.71023,0-14.49977-1.15078-20.25366-3.45233-5.86894-2.30156-10.70222-5.40867-14.61489-9.55144-3.91267-4.02772-6.78962-8.861-8.861-14.38472-1.95634-5.52372-2.99199-11.50778-2.99199-18.06723v-33.48764h24.28138v32.56703c0,3.45233.57539,6.55945,1.61112,9.55144,1.03573,2.87694,2.64677,5.40867,4.60311,7.59514s4.37294,3.79755,7.13484,4.94833,5.75389,1.84125,8.97605,1.84125,6.21423-.57539,8.861-1.84125c2.64677-1.15078,5.06345-2.87694,7.01972-4.94833,1.95634-2.18647,3.56738-4.60311,4.60311-7.59514,1.03573-2.87694,1.61112-6.09911,1.61112-9.55144v-66.97527h24.28138v67.89587h.34522Z"/><path class="cls-5" d="M434.961,301.2517h9.09114c2.18647,0,4.25787.23017,6.32928.69047,1.95632.4603,3.68249,1.26586,5.1785,2.41664s2.64679,2.53173,3.56742,4.25789,1.26586,3.91264,1.26586,6.44436c0,2.18647-.4603,4.14281-1.26586,5.86897-.80554,1.72617-1.95632,3.10711-3.45233,4.25789-1.38093,1.15078-3.1071,2.07139-4.94835,2.64677s-3.79757.92061-5.86897.92061h-9.8967v-27.50362h.00002ZM441.06013,323.23153h3.1071c1.38093,0,2.64679-.11508,3.91264-.4603,1.15078-.23017,2.30156-.80556,3.1071-1.38095.92063-.69047,1.61108-1.496,2.0714-2.64677.4603-1.03569.80554-2.41664.80554-3.91264,0-1.38095-.23015-2.53173-.80554-3.56742-.4603-1.03569-1.15078-1.84125-2.0714-2.41664-.80554-.69047-1.84125-1.15078-2.99203-1.496s-2.41664-.4603-3.68249-.4603h-3.56742v16.34102h.1151Z"/><path class="cls-5" d="M467.87326,301.2517h18.6426v5.6388h-12.65856v5.1785h11.96808v5.6388h-11.96808v5.6388h13.34903v5.6388h-19.33307v-27.73372Z"/><path class="cls-5" d="M501.13073,341.64398h6.09911v21.86478h11.27761v5.6388h-17.26167v-27.50358h-.11505Z"/><path class="cls-5" d="M533.9279,341.64398h5.06342l11.96808,27.50358h-6.78958l-2.41664-5.86897h-10.70222l-2.30156,5.86897h-6.6745l11.853-27.50358ZM536.22945,349.58437l-3.33725,8.51575h6.6745l-3.33725-8.51575Z"/><path class="cls-5" d="M635.08126,278.23613v32.56702h-47.29698v-32.56702h-24.28142v144.76786h24.28142v-47.75728h47.29698v47.75728h24.28142v-144.76786h-24.28142ZM635.08126,353.84223h-47.29698v-21.40447h47.29698v21.40447Z"/><polygon class="cls-5" points="1098.26934 335.08456 1098.26934 312.6444 1023.23861 312.6444 1023.23861 335.08456 1047.52006 335.08456 1098.26934 335.08456"/><polygon class="cls-5" points="1047.52006 400.56382 1023.23861 400.56382 1023.23861 423.00398 1101.03123 423.00398 1101.03123 400.56382 1047.52006 400.56382"/><polygon class="cls-5" points="1098.26934 378.12365 1098.26934 355.68348 1047.52006 355.68348 1023.23861 355.68348 1023.23861 378.12365 1047.52006 378.12365 1098.26934 378.12365"/><polygon class="cls-5" points="739.91713 190.8921 719.77852 190.8921 719.66343 191.00716 677.77513 299.41045 699.52482 299.41045 708.0406 277.89089 715.75079 257.29197 729.09982 222.99879 742.67899 257.29197 750.9646 277.89089 759.71052 299.41045 783.30147 299.41045 739.91713 190.8921"/><path class="cls-5" d="M1322.44085,393.77423c-1.95634-2.07139-3.56738-4.60311-4.60311-7.59514-1.03573-2.64677-1.496-5.6388-1.61112-8.74592,2.07139-.34522,3.79755-.69047,5.29355-1.03569,7.82528-1.496,13.69428-4.94833,17.83706-10.357,4.02772-5.40867,6.09911-12.08317,6.09911-19.90844,0-6.44436-1.15078-11.853-3.33728-16.11089s-5.29355-7.71023-9.09117-10.24192c-3.79755-2.53173-8.17049-4.37294-13.23395-5.40867-5.06345-1.03569-10.357-1.61108-15.99584-1.61108h-42.69383v110.47467h24.28138v-44.18986h6.55945c.11505,6.09911,1.03573,11.73795,2.99199,16.80136,1.95634,5.52372,4.94833,10.24192,8.861,14.38472,3.91267,4.02772,8.74588,7.24989,14.61489,9.55144,5.86894,2.30156,19.44817,3.45233,27.15833,3.45233v-22.67034c-3.22216,0-13.1189-.57539-15.88072-1.84125-2.87673-1.15078-5.17829-2.76186-7.24975-4.94833ZM1306.67525,358.10012c-2.41661.11508-4.71816.23017-6.90467.23017h-14.38472v-25.08694h15.88072c2.18651,0,4.37294.11508,6.6745.4603s4.25789.92061,6.09911,1.84125c1.72617.92061,3.22216,2.18647,4.37294,3.79755s1.72617,3.91264,1.72617,6.6745c0,2.99203-.69044,5.40867-1.95634,7.01975s-2.99199,2.87694-4.94833,3.6825c-1.95627.69044-4.14277,1.15074-6.55938,1.38091Z"/><path class="cls-1" d="M196.7137,105.20645l-28.33077,101.4051c-.23118.87336-.17978,1.69528.17978,2.49149.38528.82193.95035,1.41271,1.7466,1.798,1.36132.64207,3.05653,1.10442,5.08566,1.33556.48803.05143.92468.28257,1.25857.6165,1.77228,1.79792,3.08224,3.92984,3.98124,6.44698,3.49317,9.6319,4.62331,20.11151,6.06169,30.28283.95035,6.80655,1.5411,13.27924,1.79796,19.41801.02568.66778.35961,1.13014.97603,1.41271.6935.30821,1.43839.25678,2.18324-.17986.53939-.30821,1.00171-.20543,1.387.23122.35961.41093.38528.84757.10275,1.33564-.59075.97599-1.00171,2.02906-1.23289,3.18492-.10275.43664,0,.84764.28253,1.20721.28253.33393.64214.51371,1.10446.53943,6.9093.02564,14.02413.87328,21.3444,2.56849,6.78087,1.54114,13.69021,4.70041,14.40938,12.30317.56507,5.93334.48803,12.25189-.20546,18.95573-.10275,1.1815-.92468,2.69692-2.41442,4.52056"/><path class="cls-2" d="M226.43146,315.08013l-17.46591,8.93847c-.56511.30821-1.0531.6935-1.48975,1.1815l-11.35286,13.40767c-.30825.35957-.30825.71921,0,1.07878.38525.46236,1.07878.6935,2.08049.71921"/><path class="cls-1" d="M198.20345,340.40577c9.91447,4.28941,19.77758,8.63018,29.61501,13.04803,6.26719,2.85106,9.37511,5.52234,12.09775,11.17311.33389.66778.8476,1.10442,1.56678,1.30992,2.26031.61643,4.21238,2.08049,4.75177,4.4692.43664,1.92642,1.33564,3.67299,2.69696,5.26548.89896,1.00171,1.05307,2.13185.488,3.33906-1.66953,3.64735.8476,5.72784,3.10792,8.3734,7.73122,8.88704,15.59091,18.05665,23.60467,27.45748,7.39733,8.68154,16.84948,14.79467,28.30509,18.33923.8476.2825,1.5925.10271,2.2346-.51371.48803-.51371.43668-.95035-.15411-1.33564-2.26028-1.43835-3.69867-3.54456-4.34077-6.29291-.17982-.82193.12843-1.387.92464-1.69521l.59078-.23114c.6935-.25686,1.15582-.02572,1.3356.66778l1.97778,6.72955c.17978.56507.53939.87328,1.10446.97599.56507.10279,1.02739-.077,1.36132-.53935.6935-.92464,1.5925-1.28428,2.69696-1.02743.28253.05136.46232.23122.53939.51371.02568.17978-.02572.33393-.12843.488-.28253.411-.6935.64214-1.23289.6935-.87332.12843-1.07878.66786-.56507,1.66957.30821.61643.82189.87328,1.51542.79621,5.47095-.64207,10.73639-.92464,15.79638-.84757,5.62505.07707,10.73639-1.00171,15.30838-3.21063,3.92984-1.90071,8.16787-.71921,11.22443,1.92635.51371.46236.79625,1.02743.82193,1.72092.15411,3.41613-.53939,6.49834-2.10621,9.22097-3.2877,5.70213-7.39733,10.55661-12.27749,14.53781"/><path class="cls-2" d="M341.06449,457.42746c-4.16102,3.15928-9.63197,5.03434-16.41284,5.5737-2.36303.17978-4.36649,1.82364-6.03602,4.95727-.2055.38528-.51371.66778-.92468.84757-4.00688,1.77228-8.06515,3.31342-12.12343,4.5977-2.44006.77049-4.59763-.77057-5.34252-3.03085-.71918-2.15756-1.87499-3.87849-3.49317-5.21413-3.46749-2.82535-4.72609-7.11484-6.90934-10.96761-.89896-1.54106-2.20892-2.08049-3.95552-1.59242-1.48971.41093-2.97945.53935-4.44352.35957-.59075-.07707-1.00171-.38528-1.23289-.92464-.64214-1.36135-.71918-2.61992-.25686-3.75006.23118-.59078.64214-.84764,1.25857-.82193l2.51717.15407c3.05653.17986,3.59592-.87328,1.56678-3.15928-.74485-.89892-2.05481-2.20892-3.05653-2.82535-10.63368-6.96069-21.31872-13.63881-32.05511-20.06015-9.16961-5.47091-16.84952-12.99667-23.06532-22.57728-.25686-.38528-.61646-.53935-1.07878-.41093l-3.85277.92464c-1.20721.30821-1.79796,1.05307-1.7466,2.28599,0,1.00171-.38528,1.72092-1.23289,2.10621-.56507.2825-1.15582.25686-1.72089-.05136-3.00517-1.66957-5.39391-3.95556-7.14048-6.85798-.25686-.411-.30825-.87328-.23118-1.36135l1.10446-4.82877c.23118-.97607-.15411-1.5925-1.10446-1.84935-3.3391-.97607-6.52405-1.92635-9.5549-3.72434-4.10963-2.41442-8.27062-4.90584-12.45732-7.47441-1.87503-1.13014-4.08395-1.41271-6.29287-1.82364-.64214-.10271-.95035.17978-.92468.82193l.02568.71921c.02572.59071-.12843,1.15578-.46232,1.66949-.74485,1.13014-.74485,2.31171.02568,3.51892.25686.43664.28253.87328.07707,1.33556l-.8476,1.74664"/><path class="cls-1" d="M179.68444,385.74012c-.30825.51371-.48803.97599-.51371,1.387-2.90242,24.04135-5.00863,48.1597-6.34427,72.3552-.15411,3.23635-.488,7.01205-1.00171,11.35282-.488,4.08399-.82193,7.85969-1.00171,11.32718"/><path class="cls-2" d="M165.99423,481.82838l6.34423-66.80714c.05136-.35964-.05139-.6935-.30821-.95035-.25686-.25686-.56507-.38528-.95035-.35957l-2.49146.12843c-.899.05136-1.38703.51364-1.48975,1.41264l-5.83055,63.08287"/><path class="cls-2" d="M158.26297,476.66568l6.4213-63.4938c.05136-.43664-.12843-.74485-.51371-.899-6.11305-2.6712-10.73639-6.88362-13.86999-12.61139-.33393-.6165-.8476-.87328-1.51542-.77057-4.00688.59078-7.29462-.71921-9.81175-3.92984-2.18324-2.74835-4.34081-5.39391-6.49835-7.91105"/><path class="cls-1" d="M132.47503,387.05004c-.48802-1.13014-1.07876-2.02914-1.79796-2.72263-.59077-.56507-.82193-1.25857-.66782-2.08049.12843-.82193.56507-1.387,1.30994-1.74656,3.57024-1.69528,6.47266-3.87849,8.68162-6.60112"/><path class="cls-2" d="M140.00081,373.89923c2.38871-1.41271,4.54627-2.44006,6.39559-3.10792,1.72092-.59071,2.97949-1.54106,3.80142-2.85106.23118-.35957.25686-.71914.07707-1.10442-.17982-.35964-.48803-.56507-.899-.61643-3.72434-.43672-7.39733-1.28428-11.01893-2.49149-.6935-.23114-1.30996-.59078-1.87503-1.05307-1.43839-1.20721-3.1336-.66786-4.23806.6935-1.95208,2.41435-4.26374,3.54456-6.935,3.39042-.51371-.02572-.95035-.23114-1.30996-.61643-.35959-.38528-.51369-.84764-.51369-1.36135l.12843-5.26541c.02568-.411-.12843-.77057-.43666-1.05314-.28253-.2825-.64212-.41093-1.05309-.38528-5.93328.46236-11.17305-1.02735-15.69365-4.39213-8.98983-6.72955-15.23133-15.64231-18.75019-26.7897"/><path class="cls-1" d="M87.68007,326.89531c.05136-.25686-.15413-.82193-.64214-1.69521"/><path class="cls-2" d="M87.03793,325.2001c-.33391-1.1815-.92466-2.05478-1.77228-2.56849"/><path class="cls-1" d="M85.26565,322.63161c-1.23289-.15414-2.05481-.97607-2.4144-2.49149"/><path class="cls-2" d="M82.85125,320.14012l-.95035-2.05478"/><path class="cls-1" d="M81.90089,318.08534c-.28253-.59078-.02568-1.84935.79625-3.75006.20548-.43664.15411-.84764-.10275-1.23293-.25684-.41093-.61644-.59071-1.07876-.59071-1.0531,0-2.28599.43664-3.75004,1.30992"/><path class="cls-2" d="M77.76559,313.82157c-3.23635-1.1815-5.05998-3.54456-5.47095-7.14048-.05138-.51371.05138-1.00171.25684-1.46407.71919-1.46407.8733-3.00513.43666-4.64898-1.82366-7.01205-1.00173-14.02417,2.49146-21.0105.20548-.411.30823-.82193.25686-1.28428-.1798-2.67128.77055-4.57199-.02568-7.2689-1.7466-6.08741-3.54456-12.58575-3.75004-19.08408-.20548-6.24148-.79625-12.48303-1.82366-18.67315-1.02741-6.42126-1.33562-13.5361.53939-19.67487,3.1336-10.19696,6.98637-19.82893,13.76726-28.40784"/><path class="cls-1" d="M84.44372,185.16441c.84762-.43664,1.51542-1.05307,1.97776-1.84928"/><path class="cls-2" d="M86.42149,183.31513l4.13533-1.90071c.28253-.12843.46232-.35964.51369-.6935.0257-.33393-.07705-.59078-.33391-.82193-1.74658-1.48978-3.36476-3.62163-4.88018-6.34427"/><path class="cls-1" d="M85.85642,173.55473c.56507-6.01034,2.18324-11.96932,4.82881-17.87687,2.41442-5.34256,6.08739-9.40083,10.50525-13.07374,11.84087-9.73476,28.40782-7.08912,39.94048,2.05478,3.44181,2.74835,5.83052,6.75519,7.14048,11.99496,1.18153,4.70041,2.28599,9.83747,3.2877,15.46252,1.46407,8.14219-10.09429,10.60796-12.86828,17.5173-2.64556,6.57541-5.65075,13.09946-13.45905,14.48645-.97603.17978-1.3613.74485-1.20719,1.69521,1.00171,6.21584,2.08049,12.61146,3.21065,19.16115.87328,5.00863-.46234,12.40596,4.161,15.84773,2.31165,1.69528,4.54627,3.39049,6.70384,5.05998.66782.51371,1.41267.6935,2.2346.51371l7.16615-1.48971c.48803-.07707.84764-.35964,1.13018-.77057l4.75173-7.2689"/><path class="cls-2" d="M153.38277,236.86874c2.18324-3.0822,3.59595-6.88362,4.23806-11.42989.12843-.77057-.17978-1.31-.89896-1.61821-2.46578-.97599-3.44181-2.90242-2.90242-5.77912.77053-4.00692.71918-7.14048-.17982-9.34947"/><path class="cls-1" d="M153.63963,208.69205c-.17978-1.95206.97603-3.64727,3.4932-5.08562"/><path class="cls-2" d="M157.13283,203.60642l3.92984-.07707c.488-.02564.77053-.25686.87328-.74485l20.5995-99.14486"/><path class="cls-2" d="M185.28377,103.48553c-6.65244,32.54311-13.30492,65.08629-20.00876,97.68076-.28253,1.46407-.41096,2.44014-.33389,2.90249.35957,2.02914.82193,2.05478,1.36132.077l27.63727-99.96675"/><path class="cls-3" d="M153.63963,208.69205c-2.10617,1.77228-3.03085,4.5977-2.77399,8.42476.28253,4.57199.6935,9.09254,1.20721,13.56181.05136.2825.20546.51371.46232.66778.30821.15414.35961.35964.2055.66786-.59078,1.1815-.97603,2.36299-1.15585,3.49313-.07703.43672.02568.79629.33393,1.15585.38528.43664.87328.488,1.46403.2055"/><path class="cls-3" d="M85.85642,173.55473c-2.05481-.92464-2.77401.56507-2.20892,4.44356.07705.51371.28253.95035.61644,1.30992.41096.46236.56507.97607.51369,1.5925-.07705.51371.10275.97607.48802,1.33564l1.15584,1.07878"/><path class="cls-3" d="M84.44372,185.16441c-.33391-.05136-.48802-.15407-.46232-.30821.20546-1.02735.07705-1.97771-.38528-2.82535-.89898-1.74656-1.18151-3.46749-.84762-5.18841.28255-1.48971.25686-2.95378-.05136-4.39213-.1798-.77057-.33391-.77057-.46234.02564-.56507,3.41613-.48802,6.80662.1798,10.19704.10273.51371,0,1.00171-.28255,1.46407-1.59248,2.51713-3.36476,5.05998-5.3425,7.60283-1.46407,1.87499-2.64558,3.69863-3.59594,5.49662-.95035,1.82364-2.00344,3.74999-3.15928,5.75348-1.23289,2.15756-1.36132,4.98291-2.54283,7.29455-.64214,1.23293-1.07878,2.46578-1.36132,3.72434-.25686,1.13021-.56509,2.23464-.95035,3.31342-1.69523,4.6747-2.00344,9.78604-.97603,15.33409.20548.95028-.25686,1.87499-.12843,2.69692.89898,6.88362,1.5411,13.61317,1.90069,20.16286.10275,2.05485.38528,4.05827.79625,5.98462.43666,2.05485.59077,4.08399.46234,6.06177-.05138.51364.05138.97599.25686,1.43835,1.61815,3.2877,2.28597,6.52405,2.00344,9.65761-.20548,2.36307-.61644,4.77749-1.28426,7.2689-.66782,2.56857-1.05309,5.03434-1.18151,7.39733-.28253,5.5737-.28253,11.37853.02568,17.36323.15413,3.33906,1.84933,6.36991,4.44354,8.4504,2.05481,1.64385,3.57024,3.62163,4.62334,5.90763.20548.46228.25684.95035.15411,1.43835-.8476,4.64898-.35959,8.68162,1.48975,12.12339,1.28425,2.44014,2.36303,2.33735,3.23633-.2825.43664-1.36135.97603-2.67128,1.66953-3.95556.74487-1.41271,1.38701-2.92813,1.90071-4.57199.53939-1.72085,1.36132-3.23627,2.46578-4.59763"/><path class="cls-3" d="M87.68007,326.89531c-1.54112,5.47098-2.72263,9.01554-3.54456,10.6594-1.20721,2.36299-.6935,3.95549,1.5411,4.75177.46234.17978.82193.488,1.07878.89892,4.7004,8.06519,10.81347,14.48645,18.33923,19.26394,3.15928,2.00342,6.57541,2.56849,10.04291,3.75006.43664.15407.82193.38521,1.13014.71914l4.46924,4.64906c.25684.25686.56507.41093.95034.488,2.15756.35957,3.67299.46236,5.95898-.38528,3.90415-1.46407,8.01378-.71921,12.35459,2.20892"/><path class="cls-3" d="M132.47503,387.05004l-3.26203-3.15928c-.23116-.23114-.53937-.38528-.87328-.488-.33391-.07707-.64214-.07707-.97603.02564-.33391.07707-.64214.25686-.8733.48807-.25686.25686-.41096.53935-.51371.87328-1.64385,5.90755,1.18151,7.91105,4.34081,11.96932,1.36132,1.77228,2.87674,3.49313,4.54627,5.13698,2.41442,2.36307,5.29116,3.92984,8.63022,4.72613.35961.077.6935.25686,1.00171.51364,3.85281,3.4932,7.62851,6.98641,11.27582,10.4539,2.20892,2.15756,3.18495,4.77749,2.90242,7.91105-1.0531,11.37853-2.33735,22.98828-3.85277,34.8291-.25686,2.08049-.6935,4.31513-1.25857,6.72955-.51371,2.15756-.79625,4.49491-.84764,6.98633"/><path class="cls-3" d="M179.68444,385.74012c.30821.71914.46232,1.51542.488,2.38871,0,.66786.23118.77057.74489.30821,1.87499-1.72092,4.18666-1.69521,6.96065.07707.6935.46236,1.43839.74485,2.23464.84764.46232.077.87328.23114,1.25857.46228l10.32543,6.16448c.66782.38528,1.18153.95035,1.48975,1.66949.71921,1.56685,1.43839,3.15928,2.13189,4.75177,1.13014,2.59421,3.05653,4.75177,5.75348,6.47269,1.25857.82193,2.56853,1.13014,3.90413.95035,1.56682-.2055,3.05656-.51371,4.49491-.95035.46236-.12843.92468-.15414,1.41271-.02572,1.90067.43664,3.44181,1.28428,4.59763,2.49149,2.74831,2.90242,5.75348,5.90755,8.98983,9.04119,1.43835,1.41271,3.39045,1.87499,4.57195,3.46749.33393.43664.71921.74485,1.20721.95035,1.18153.53943,2.28599,1.20721,3.2877,2.00342,1.0531.79629,2.10617,1.54114,3.15928,2.28599,2.36303,1.61821,4.72609,3.21063,7.1148,4.77749,2.36303,1.51542,4.77745,2.97949,7.29462,4.34077,4.16099,2.28599,8.19354,4.80313,12.09771,7.60283,5.5737,3.95549-2.51713,11.58403,7.32026,14.69195,2.10621.66778,3.82709,2.31163,5.47095,3.72434.35961.33385.64214.74485.82193,1.23285.30825.82193.84764,1.43835,1.61817,1.84935.48803.25686.87332.59071,1.20721,1.00171,1.90071,2.33735,3.80142,4.70041,5.7278,7.08912.79625.97599,1.79796,1.82364,2.97949,2.49149,1.23289.66778,2.51713,1.05307,3.82709,1.07871,2.38871.07707,4.72606-.35957,7.01205-1.30992,3.33906-1.387,6.4213-3.18492,9.22097-5.44527,1.87503-1.48971,3.80142-2.46578,5.83055-2.95378,2.28599-.56507,4.62334-1.07878,6.96069-1.54114.43664-.077.82193-.2825,1.10446-.64207.38528-.48807.95035-.77057,1.61817-.84764.43664-.02572.79621-.17978,1.13014-.43664l7.39733-5.62505c.15411-.07707.17978-.2055.10275-.33393-.07707-.15414-.2055-.2055-.35961-.10271-.38528.17978-.8476.25686-1.33564.23114-.43664-.05136-.79625.12843-1.05307.51371-.2055.33393-.46236.488-.77057.488-1.30996,0-1.36132-.25686-.17978-.79621,1.387-.59078,2.13185-1.51542,2.20892-2.74835"/><path class="cls-3" d="M198.20345,340.40577c1.20721-.66786,1.95206-1.74664,2.26028-3.18499.15411-.64214.46236-1.10442,1.00175-1.46407.89896-.56507,1.64385-1.387,2.18324-2.49142.25686-.51371.66782-.899,1.1815-1.15585,5.21409-2.49149,10.19704-5.11134,14.94881-7.88533,4.18666-2.41442,6.42126-5.47098,6.65244-9.14397"/><path class="cls-3" d="M77.76559,313.82157l4.13531,4.26377"/><path class="cls-3" d="M82.85125,320.14012c.07705,2.92813-1.05309,5.23977-3.41613,6.98641-.43664.30821-.71918.74485-.82193,1.28421-.1798.84764.25686,1.387,1.23289,1.61821.61644.12843,1.10446-.07707,1.41269-.61643l4.00688-6.78091"/><path class="cls-3" d="M157.13283,203.60642c-.48803-1.798-.41096-3.39049.23118-4.80313.20546-.411.30821-.87328.28253-1.33564-.02572-1.36135.10271-2.64556.38525-3.90413.64214-3.00521,1.02743-6.06169,1.13018-9.22097.05136-1.77228.43664-3.44185,1.13014-5.0857,1.43835-3.33906,2.4401-6.72955,2.97949-10.11997.51368-3.23635,1.10446-6.34427,1.72089-9.32376.66782-3.13356,1.23289-6.29284,1.69525-9.47783.6935-4.70034,1.66953-9.22097,2.87674-13.56174.66778-2.28599.6421-4.64906,1.59246-6.85798.6935-1.61814,1.13014-3.2877,1.30996-5.03427.30821-2.82538.6935-5.65077,1.15582-8.45044.02568-.10275.05139-.15411.15411-.17978.10275-.02572.23118-.05139.38528-.07707.07707,0,.12843-.05136.12843-.12843.05139-2.97949.53939-5.88191,1.46407-8.6559.23114-.66782.17978-1.30996-.10275-1.92639-.10275-.2055-.05136-.30825.17978-.33393.12843-.02568.28257,0,.38528.07707.2055.10275.33393.25686.41096.488.41096,1.46407.25686,2.77403-.488,3.92984-.2055.28253-.25686.59075-.17982.92468.2055,1.00171.12843,1.90071-.23114,2.72263-.35961.87328-.56507,1.77228-.64214,2.77399-.12843,1.61817-.2055,3.26203-.23118,4.95723q0,.05139.05139.07707c.02568,0,.02568-.02568.05136-.05139.95035-3.9812,1.90071-8.14219,2.85106-12.56003.46232-2.08053.07703-3.67299-1.13014-4.72609"/><path class="cls-2" d="M157.82633,208.76912c1.15582-.2825,2.13185-.74485,2.95378-1.33564.30825-.20543.43668-.51364.33393-.87328-.07707-.38528-.30821-.59071-.6935-.66778-2.51717-.38528-3.75006.30821-3.64731,2.08049.02568.71914.38528.97599,1.0531.79621"/><path class="cls-2" d="M120.53143,208.46091c-.0257-.2055-.15413-.33393-.38528-.38528-.23116-.02564-.38528.05136-.48802.25686l-3.26203,6.57541c-.07705.15414-.07705.30821.0257.43664l5.47095,9.19533c.12841.23114.33391.2825.56507.2055.23116-.10279.33391-.25686.30821-.51371l-2.2346-15.77074"/><path class="cls-2" d="M156.36226,222.09972c.48803.12843,1.00175-.12843,1.56682-.77049.53939-.64214.92464-1.48978,1.20717-2.54285.25686-1.02743.33393-1.97778.15414-2.79971-.15414-.82193-.48803-1.30992-.97607-1.43835-.488-.12843-1.00171.12843-1.5411.77057-.56507.66778-.95035,1.51542-1.23289,2.54277-.25686,1.05314-.30821,1.97778-.15411,2.82542.15411.82193.48803,1.28421.97603,1.41264"/><path class="cls-1" d="M172.18435,220.32744c-2.4401.87336-4.72609,2.0035-6.78091,3.41613-.38528.25686-.64214.6165-.82193,1.02743l-4.26374,11.32718c-.488,1.33564-.12843,2.36307,1.10446,3.05656,1.13014.61643,1.5411,1.56678,1.25857,2.82535-.35957,1.64385-1.15582,2.97949-2.38871,4.03256-.64214.53943-.92468,1.23293-.82193,2.08049.43664,3.82713.02568,7.39733-1.20721,10.71075-.23118.66786-.12843,1.25857.35961,1.77228,3.46749,3.7757,7.03773,7.50005,10.71072,11.12168,3.87845,3.82713,10.27407,2.74835,14.79467,1.387.35961-.12843.51371-.35957.48803-.71914-1.33564-15.38545-3.1336-30.64247-5.36823-45.79671-.51368-3.41613-1.69521-6.80662-4.59763-8.83568-.41096-.30829-.8476-.33393-1.30996-.12843-.46232.20543-.71918.56507-.77053,1.05307-.02572.2825-.02572.56507.05136.82193.12843.41093-.02568.6935-.43664.84757"/><path class="cls-1" d="M167.92062,220.04494c-.17982-.38528-.77057-.35957-1.798.10271-1.02739.43664-1.46403.87336-1.30992,1.23293.17978.38528.77057.35957,1.79796-.10279,1.02743-.43664,1.46407-.84757,1.30996-1.23285"/><path class="cls-2" d="M152.8177,248.29863c.2055-.82193-.05136-1.02743-.82193-.66778-1.07878.53935-1.90071,1.36128-2.4401,2.51713-.23114.51371-.12843.899.35961,1.1815l.92468.59078c.23114.12843.46232.12843.71918.05136.23118-.10271.38528-.2825.43664-.51371l.82193-3.15928"/><path class="cls-2" d="M74.2724,297.74262l2.72262.38528c.28253.02572.43666-.07707.46234-.35957l.46234-3.18499c.20548-1.48971.38527-2.92806.48802-4.34077.10275-1.387.15411-2.61992.15411-3.6987-.02568-1.05307-.10273-1.90071-.23116-2.49142-.12843-.61643-.30823-.92471-.53939-.95035l-.10273-.02572c-.23118-.02564-.48803.23122-.77057.77057-.28253.53943-.59075,1.33564-.89898,2.36307-.30821,1.02735-.61644,2.23456-.89898,3.59592-.28253,1.36128-.53939,2.77399-.74487,4.2637l-.46234,3.18499c-.02568.28257.10275.43664.35961.488"/><path class="cls-1" d="M81.66973,304.3951c-.20548-1.56678-.97605-2.08049-2.33737-1.51542-.79623.33393-.8476.74485-.12841,1.23293l1.41267.95035c.82193.56507,1.18153.33385,1.0531-.66786"/><path class="cls-1" d="M78.74162,309.45508c.43664-.43664.28253-1.05307-.51371-1.79792-.79623-.77057-1.41267-.92471-1.84933-.46236-.43664.43664-.25684,1.05307.53939,1.79792.79625.77057,1.41269.92471,1.82366.46236"/><path class="cls-2" d="M175.62616,319.70348c-2.49146-.10271-5.03431-.61643-7.62851-1.51542-3.57024-1.28428-7.24323-.46236-11.01893-.488-4.28945,0-4.41788.74485-.38528,2.20892,5.03431,1.82364,9.94015,4.23806,14.71759,7.21755.43668.2825.79625.20543,1.07878-.23122l3.82709-6.03598c.15411-.23122.17982-.48807.02568-.74485-.12839-.25686-.33389-.411-.61643-.411"/><path class="cls-2" d="M127.38937,364.34433l3.90415-2.82535c.20548-.15414.23116-.33393.07705-.53943l-.12843-.17978c-.46232-.64214-1.07878-1.05307-1.87501-1.1815-.77055-.15414-1.46407,0-2.10619.46236-.61644.43664-.97603,1.05307-1.07878,1.84928-.10273.77057.07705,1.48978.53939,2.13192l.12843.20543c.15411.2055.33391.23122.53939.07707"/><path class="cls-1" d="M175.16384,379.39585c.30821-.05136.51368-.38528.66778-1.00171.12843-.64214.12843-1.36128,0-2.18321-.12843-.84764-.33389-1.54114-.6421-2.10621-.30825-.53943-.59078-.79629-.899-.77057-.30821.05136-.53939.38528-.66782,1.00171s-.12843,1.36135-.02568,2.18328c.12843.84757.33389,1.54106.64214,2.10613.30821.53943.61643.79629.92468.77057"/><path class="cls-1" d="M174.67581,386.58769c.02568-.59071-.25686-.89892-.8476-.92464h-.25686c-.59075-.02572-.899.25686-.92468.87328l-.38528,10.09433c0,.59071.28253.92464.87332.92464l.25686.02572c.59075.02564.89896-.28257.92464-.87336l.35961-10.11997"/><path class="cls-3" d="M82.36323,166.79954c.02568-.28257-.05138-.33393-.28253-.17978-.64214.41093-.97605.97599-1.02741,1.69521-.23118,4.44356-.15411,9.78604.23116,16.00188.02568.10271.05138.12843.10275.02572.02568-.05143.07705-.07707.12843-.10279.10273-.02564.17978-.10271.15411-.23114-.35961-5.88191-.12843-11.60975.6935-17.20909"/><path class="cls-5" d="M196.71359,105.20651l-28.33076,101.40511c-.23117.8733-.1798,1.69522.1798,2.49146.38528.82193.95035,1.41269,1.74659,1.79796,1.36131.64213,3.05654,1.10446,5.08567,1.33563.48802.05137.92467.28254,1.25857.61644,1.77228,1.79796,3.08222,3.92983,3.9812,6.44698,3.49318,9.63194,4.62333,20.1115,6.0617,30.28283.95035,6.80657,1.54111,13.27924,1.79796,19.418.02569.66781.35959,1.13015.97604,1.41269.6935.30822,1.43837.25685,2.18324-.1798.53939-.30822,1.00172-.20548,1.387.23117.35959.41096.38528.84761.10274,1.33563-.59076.97604-1.00172,2.02913-1.23289,3.18496-.10274.43665,0,.84761.28254,1.2072.28254.33391.64213.5137,1.10446.53939,6.90931.02569,14.02411.8733,21.34439,2.56852,6.78089,1.54111,13.6902,4.70039,14.40939,12.3032.56507,5.93328.48802,12.25183-.20548,18.95567-.10274,1.18152-.92467,2.69694-2.41441,4.52059l-17.46592,8.93844c-.56507.30822-1.05309.6935-1.48974,1.18152l-11.35285,13.40767c-.30822.35959-.30822.71919,0,1.07878.38528.46233,1.07878.6935,2.0805.71919,9.91448,4.28943,19.77759,8.63022,29.61502,13.04807,6.26718,2.85106,9.37509,5.52231,12.09772,11.17305.33391.66781.84761,1.10446,1.5668,1.30994,2.2603.61644,4.21237,2.0805,4.75176,4.46922.43665,1.92639,1.33563,3.67298,2.69694,5.26546.89898,1.00172,1.05309,2.13187.48802,3.33907-1.66954,3.6473.84761,5.7278,3.10791,8.37337,7.73124,8.88707,15.59091,18.05668,23.60468,27.45746,7.39733,8.68159,16.84948,14.79467,28.30507,18.33922.84761.28254,1.59248.10274,2.23461-.5137.48802-.5137.43665-.95035-.15411-1.33563-2.2603-1.43837-3.69867-3.54456-4.3408-6.29287-.1798-.82193.12843-1.387.92467-1.69522l.59076-.23117c.6935-.25685,1.15583-.02569,1.33563.66781l1.97776,6.72952c.1798.56507.53939.8733,1.10446.97604s1.02741-.07706,1.36131-.53939c.6935-.92467,1.59248-1.28426,2.69694-1.02741.28254.05137.46233.23117.53939.5137.02569.1798-.02569.33391-.12843.48802-.28254.41096-.6935.64213-1.23289.6935-.8733.12843-1.07878.66781-.56507,1.66954.30822.61644.82193.8733,1.51543.79624,5.47094-.64213,10.73641-.92467,15.79639-.84761,5.62506.07706,10.73641-1.00172,15.30837-3.21065,3.92983-1.9007,8.16789-.71919,11.22443,1.92639.5137.46233.79624,1.02741.82193,1.72091.15411,3.41613-.53939,6.49835-2.10619,9.22098-3.2877,5.70211-7.39733,10.55661-12.27752,14.53781-4.161,3.15928-9.63194,5.0343-16.41283,5.57368-2.36304.1798-4.36648,1.82365-6.03602,4.95724-.20548.38528-.5137.66781-.92467.84761-4.00689,1.77228-8.06515,3.31339-12.12341,4.59765-2.44009.77056-4.59765-.77056-5.34252-3.03085-.71919-2.15756-1.87502-3.87846-3.49318-5.21409-3.4675-2.82537-4.72607-7.1148-6.90931-10.96757-.89898-1.54111-2.20893-2.0805-3.95552-1.59248-1.48974.41096-2.97948.53939-4.44354.35959-.59076-.07706-1.00172-.38528-1.23289-.92467-.64213-1.36131-.71919-2.61989-.25685-3.75004.23117-.59076.64213-.84761,1.25857-.82193l2.51715.15411c3.05654.1798,3.59593-.8733,1.5668-3.15928-.74487-.89898-2.05481-2.20893-3.05654-2.82537-10.63367-6.96068-21.3187-13.63883-32.05511-20.06013-9.16961-5.47094-16.84948-12.9967-23.0653-22.57728-.25685-.38528-.61644-.53939-1.07878-.41096l-3.85278.92467c-1.2072.30822-1.79796,1.05309-1.74659,2.28598,0,1.00172-.38528,1.72091-1.23289,2.10619-.56507.28254-1.15583.25685-1.72091-.05137-3.00517-1.66954-5.39389-3.95552-7.14048-6.85794-.25685-.41096-.30822-.8733-.23117-1.36131l1.10446-4.82881c.23117-.97604-.15411-1.59248-1.10446-1.84933-3.33907-.97604-6.52404-1.92639-9.55489-3.72435-4.10963-2.41441-8.27063-4.90587-12.45731-7.47439-1.87502-1.13015-4.08394-1.41269-6.29287-1.82365-.64213-.10274-.95035.1798-.92467.82193l.02569.71919c.02569.59076-.12843,1.15583-.46233,1.66954-.74487,1.13015-.74487,2.28598.02569,3.51887.25685.43665.28254.8733.07706,1.33563l-.84761,1.74659c-.30822.5137-.48802.97604-.5137,1.387-2.90243,24.04133-5.00861,48.15972-6.34424,72.35516-.15411,3.23633-.48802,7.01206-1.00172,11.35285-.48802,4.08394-.82193,7.85967-1.00172,11.32717l-5.80485,73.511c-.05137.6935-.43665,1.02741-1.15583,1.00172l-3.31339-.07706c-.71919,0-1.05309-.38528-.97604-1.07878l6.4213-73.69079,6.34424-66.80716c.05137-.35959-.05137-.6935-.30822-.95035s-.56507-.38528-.95035-.35959l-2.49146.12843c-.89898.05137-1.387.5137-1.48974,1.41269l-5.83054,63.08281-7.88535,77.59494c-.05137.53939-.33391.79624-.84761.77056l-1.41269-.05137c-.56507-.02569-.82193-.30822-.77056-.8733l7.91104-79.11037,6.4213-63.49377c.05137-.43665-.12843-.74487-.5137-.89898-6.11307-2.67126-10.73641-6.88363-13.87-12.61143-.33391-.61644-.84761-.8733-1.51543-.77056-4.00689.59076-7.29459-.71919-9.81174-3.92983-2.18324-2.74831-4.3408-5.39389-6.49835-7.91104-.48802-1.13015-1.07878-2.02913-1.79796-2.72263-.59076-.56507-.82193-1.25857-.66781-2.0805.12843-.82193.56507-1.387,1.30994-1.74659,3.57024-1.69522,6.47267-3.87846,8.68159-6.60109,2.38872-1.41269,4.54628-2.44009,6.39561-3.10791,1.72091-.59076,2.97948-1.54111,3.80141-2.85106.23117-.35959.25685-.71919.07706-1.10446-.1798-.35959-.48802-.56507-.89898-.61644-3.72435-.43665-7.39733-1.28426-11.01894-2.49146-.6935-.23117-1.30994-.59076-1.87502-1.05309-1.43837-1.2072-3.13359-.66781-4.23806.6935-1.95207,2.41441-4.26374,3.54456-6.935,3.39044-.5137-.02569-.95035-.23117-1.30994-.61644s-.5137-.84761-.5137-1.36131l.12843-5.26546c.02569-.41096-.12843-.77056-.43665-1.05309-.28254-.28254-.64213-.41096-1.05309-.38528-5.93328.46233-11.17305-1.02741-15.69365-4.39217-8.98981-6.72952-15.23131-15.64228-18.75018-26.78965.05137-.25685-.15411-.82193-.64213-1.69522-.33391-1.18152-.92467-2.05481-1.77228-2.56852-1.23289-.15411-2.05481-.97604-2.41441-2.49146l-.95035-2.05481c-.28254-.59076-.02569-1.84933.79624-3.75004.20548-.43665.15411-.84761-.10274-1.23289-.25685-.41096-.61644-.59076-1.07878-.59076-1.05309,0-2.28598.43665-3.75004,1.30994-3.23633-1.18152-5.05998-3.54456-5.47094-7.14048-.05137-.5137.05137-1.00172.25685-1.46406.71919-1.46406.8733-3.00517.43665-4.64902-1.82365-7.01206-1.00172-14.02411,2.49146-21.01048.20548-.41096.30822-.82193.25685-1.28426-.1798-2.67126.77056-4.57196-.02569-7.26891-1.74659-6.08739-3.54456-12.58574-3.75004-19.08409-.20548-6.2415-.79624-12.483-1.82365-18.67313-1.02741-6.4213-1.33563-13.53609.53939-19.67485,3.13359-10.19702,6.98637-19.82896,13.76726-28.40781.84761-.43665,1.51543-1.05309,1.97776-1.84933l4.13531-1.9007c.28254-.12843.46233-.35959.5137-.6935.02569-.33391-.07706-.59076-.33391-.82193-1.74659-1.48974-3.36476-3.62161-4.88018-6.34424.56507-6.01033,2.18324-11.9693,4.82881-17.87689,2.41441-5.34252,6.08739-9.40078,10.50524-13.07376,11.84087-9.73468,28.40781-7.08911,39.94046,2.05481,3.44181,2.74831,5.83054,6.7552,7.14048,11.99498,1.18152,4.70039,2.28598,9.83743,3.2877,15.46248,1.46406,8.1422-10.09428,10.60798-12.86828,17.5173-2.64557,6.57541-5.65074,13.09944-13.45904,14.48644-.97604.1798-1.36131.74487-1.2072,1.69522,1.00172,6.21581,2.0805,12.61143,3.21065,19.16115.8733,5.00861-.46233,12.40594,4.161,15.84776,2.31167,1.69522,4.54628,3.39044,6.70383,5.05998.66781.5137,1.41269.6935,2.23461.5137l7.16617-1.48974c.48802-.07706.84761-.33391,1.13015-.77056l4.75176-7.26891c2.18324-3.08222,3.59593-6.88363,4.23806-11.42991.12843-.77056-.1798-1.30994-.89898-1.61817-2.46578-.97604-3.44181-2.90243-2.90243-5.77917.77056-4.00689.71919-7.14048-.1798-9.34941-.1798-1.95207.97604-3.6473,3.49318-5.08567l3.92983-.07706c.48802-.02569.77056-.25685.8733-.74487l20.59952-99.14481L202.92941,1.13015c.15411-.66781.56507-1.00172,1.25857-.97604l1.54111.02569c.48802,0,.6935.25685.59076.77056l-21.03617,102.53525c-6.65246,32.54313-13.30493,65.08626-20.00876,97.68075-.28254,1.46406-.41096,2.44009-.33391,2.90243.35959,2.02913.82193,2.05481,1.36131.07706l27.63726-99.96674L222.34741,1.36131c.15411-.5137.46233-.84761.95035-1.05309.53939-.20548,1.13015-.30822,1.72091-.30822.8733.02569,1.2072.46233.97604,1.30994l-29.28111,103.89657ZM157.82622,208.76917c1.15583-.28254,2.13187-.74487,2.9538-1.33563.30822-.20548.43665-.5137.33391-.8733-.07706-.38528-.30822-.59076-.6935-.66781-2.51715-.38528-3.75004.30822-3.6473,2.0805.02569.71919.38528.97604,1.05309.79624ZM120.53134,208.46095c-.02569-.20548-.15411-.33391-.38528-.38528-.23117-.02569-.38528.05137-.48802.25685l-3.26202,6.57541c-.07706.15411-.07706.30822.02569.43665l5.47094,9.1953c.12843.23117.33391.28254.56507.20548.23117-.10274.33391-.25685.30822-.5137l-2.23461-15.7707ZM156.36217,222.09978c.48802.12843,1.00172-.12843,1.5668-.77056.53939-.64213.92467-1.48974,1.2072-2.54283.25685-1.02741.33391-1.97776.15411-2.79969-.15411-.82193-.48802-1.30994-.97604-1.43837s-1.00172.12843-1.54111.77056c-.56507.66781-.95035,1.51543-1.23289,2.54283-.25685,1.05309-.30822,1.97776-.15411,2.82537.15411.82193.48802,1.28426.97604,1.41269ZM172.18424,220.32751c-2.44009.8733-4.72607,2.00344-6.78089,3.41613-.38528.25685-.64213.61644-.82193,1.02741l-4.26374,11.32717c-.48802,1.33563-.12843,2.36304,1.10446,3.05654,1.13015.61644,1.54111,1.5668,1.25857,2.82537-.35959,1.64385-1.15583,2.97948-2.38872,4.03257-.64213.53939-.92467,1.23289-.82193,2.0805.43665,3.82709.02569,7.39733-1.2072,10.71072-.23117.66781-.12843,1.25857.35959,1.77228,3.4675,3.77572,7.03774,7.50007,10.71072,11.12168,3.87846,3.82709,10.27407,2.74831,14.79467,1.387.35959-.12843.5137-.35959.48802-.71919-1.33563-15.38543-3.13359-30.64242-5.3682-45.79668-.5137-3.41613-1.69522-6.80657-4.59765-8.8357-.41096-.30822-.84761-.33391-1.30994-.12843s-.71919.56507-.77056,1.05309c-.02569.28254-.02569.56507.05137.82193.12843.41096-.02569.6935-.43665.84761ZM167.9205,220.04497c-.1798-.38528-.77056-.35959-1.79796.10274-1.02741.43665-1.46406.8733-1.30994,1.23289.1798.38528.77056.35959,1.79796-.10274,1.02741-.43665,1.46406-.84761,1.30994-1.23289ZM152.81761,248.29867c.20548-.82193-.05137-1.02741-.82193-.66781-1.07878.53939-1.9007,1.36131-2.44009,2.51715-.23117.5137-.12843.89898.35959,1.18152l.92467.59076c.23117.12843.46233.12843.71919.05137.23117-.10274.38528-.28254.43665-.5137l.82193-3.15928ZM74.27232,297.74265l2.72263.38528c.28254.02569.43665-.07706.46233-.35959l.46233-3.18496c.20548-1.48974.38528-2.92811.48802-4.3408.10274-1.387.15411-2.61989.15411-3.69867-.02569-1.05309-.10274-1.9007-.23117-2.49146-.12843-.61644-.30822-.92467-.53939-.95035l-.10274-.02569c-.23117-.02569-.48802.23117-.77056.77056s-.59076,1.33563-.89898,2.36304-.61644,2.23461-.89898,3.59593-.53939,2.774-.74487,4.26374l-.46233,3.18496c-.02569.28254.10274.43665.35959.48802ZM81.66965,304.39511c-.20548-1.5668-.97604-2.0805-2.33735-1.51543-.79624.33391-.84761.74487-.12843,1.23289l1.41269.95035c.82193.56507,1.18152.33391,1.05309-.66781ZM78.74154,309.45509c.43665-.43665.28254-1.05309-.5137-1.79796-.79624-.77056-1.41269-.92467-1.84933-.46233-.43665.43665-.25685,1.05309.53939,1.79796.79624.77056,1.41269.92467,1.82365.46233ZM175.62606,319.70348c-2.49146-.10274-5.0343-.61644-7.6285-1.51543-3.57024-1.28426-7.24322-.46233-11.01894-.48802-4.28943,0-4.41785.74487-.38528,2.20893,5.0343,1.82365,9.94017,4.23806,14.71761,7.21754.43665.28254.79624.20548,1.07878-.23117l3.82709-6.03602c.15411-.23117.1798-.48802.02569-.74487-.12843-.25685-.33391-.41096-.61644-.41096ZM127.38928,364.34433l3.90415-2.82537c.20548-.15411.23117-.33391.07706-.53939l-.12843-.1798c-.46233-.64213-1.07878-1.05309-1.87502-1.18152-.77056-.15411-1.46406,0-2.10619.46233-.61644.43665-.97604,1.05309-1.07878,1.84933-.10274.77056.07706,1.48974.53939,2.13187l.12843.20548c.15411.20548.33391.23117.53939.07706ZM175.16372,379.39585c.30822-.05137.5137-.38528.66781-1.00172.12843-.64213.12843-1.36131,0-2.18324-.12843-.84761-.33391-1.54111-.64213-2.10619-.30822-.53939-.59076-.79624-.89898-.77056-.30822.05137-.53939.38528-.66781,1.00172s-.12843,1.36131-.02569,2.18324c.12843.84761.33391,1.54111.64213,2.10619.30822.53939.61644.79624.92467.77056ZM174.6757,386.5877c.02569-.59076-.25685-.89898-.84761-.92467h-.25685c-.59076-.02569-.89898.25685-.92467.8733l-.38528,10.09428c0,.59076.28254.92467.8733.92467l.25685.02569c.59076.02569.89898-.28254.92467-.8733l.35959-10.11996Z"/><path class="cls-4" d="M133.32256,90.28342c7.4487-10.45387,23.0653-16.69537,32.5945-5.05998.33391.41096.30822.79624-.10274,1.13015-4.13531,3.59593-8.75865,5.67643-13.81863,6.26718-6.2415.74487-12.483,1.43837-18.77587,2.0805-.33391.02569-.61644-.07706-.8733-.30822-.23117-.25685-.33391-.53939-.28254-.8733.12843-1.15583.53939-2.23461,1.25857-3.23633Z"/><path class="cls-6" d="M182.53537,103.63972l-20.59952,99.14481c-.10274.48802-.38528.71919-.8733.74487l-3.92983.07706c-.48802-1.79796-.41096-3.39044.23117-4.80313.20548-.41096.30822-.8733.28254-1.33563-.02569-1.36131.10274-2.64557.38528-3.90415.64213-3.00517,1.02741-6.0617,1.13015-9.22098.05137-1.77228.43665-3.44181,1.13015-5.08567,1.43837-3.33907,2.44009-6.72952,2.97948-10.11996.5137-3.23633,1.10446-6.34424,1.72091-9.32372.66781-3.13359,1.23289-6.29287,1.69522-9.47783.6935-4.70039,1.66954-9.22098,2.87674-13.56178.66781-2.28598.64213-4.64902,1.59248-6.85794.6935-1.61817,1.13015-3.2877,1.30994-5.0343.30822-2.82537.6935-5.65074,1.15583-8.45043.02569-.10274.05137-.15411.15411-.1798s.23117-.05137.38528-.07706c.07706,0,.12843-.05137.12843-.12843.05137-2.97948.53939-5.88191,1.46406-8.65591.23117-.66781.1798-1.30994-.10274-1.92639-.10274-.20548-.05137-.30822.1798-.33391.12843-.02569.28254,0,.38528.07706.20548.10274.33391.25685.41096.48802.41096,1.46406.25685,2.774-.48802,3.92983-.20548.28254-.25685.59076-.1798.92467.20548,1.00172.12843,1.9007-.23117,2.72263-.35959.8733-.56507,1.77228-.64213,2.774-.12843,1.61817-.20548,3.26202-.23117,4.95724q0,.05137.05137.07706c.02569,0,.02569-.02569.05137-.05137.95035-3.9812,1.9007-8.1422,2.85106-12.56005.46233-2.0805.07706-3.67298-1.13015-4.72607l5.85622-.10274Z"/><path class="cls-6" d="M185.28368,103.48561l8.65591.6935-27.63726,99.96674c-.53939,1.97776-1.00172,1.95207-1.36131-.07706-.07706-.46233.05137-1.43837.33391-2.90243,6.70383-32.5945,13.3563-65.13763,20.00876-97.68075Z"/><path class="cls-4" d="M176.67915,103.74246c1.2072,1.05309,1.59248,2.64557,1.13015,4.72607-.95035,4.41785-1.9007,8.57885-2.85106,12.56005-.02569.02569-.02569.05137-.05137.05137q-.05137-.02569-.05137-.07706c.02569-1.69522.10274-3.33907.23117-4.95724.07706-1.00172.28254-1.9007.64213-2.774.35959-.82193.43665-1.72091.23117-2.72263-.07706-.33391-.02569-.64213.1798-.92467.74487-1.15583.89898-2.46578.48802-3.92983-.07706-.23117-.20548-.38528-.41096-.48802-.10274-.07706-.25685-.10274-.38528-.07706-.23117.02569-.28254.12843-.1798.33391.28254.61644.33391,1.25857.10274,1.92639-.92467,2.774-1.41269,5.67643-1.46406,8.65591,0,.07706-.05137.12843-.12843.12843-.15411.02569-.28254.05137-.38528.07706s-.12843.07706-.15411.1798c-.46233,2.79969-.84761,5.62506-1.15583,8.45043-.1798,1.74659-.61644,3.41613-1.30994,5.0343-.95035,2.20893-.92467,4.57196-1.59248,6.85794-1.2072,4.3408-2.18324,8.86139-2.87674,13.56178-.46233,3.18496-1.02741,6.34424-1.69522,9.47783-.61644,2.97948-1.2072,6.08739-1.72091,9.32372-.53939,3.39044-1.54111,6.78089-2.97948,10.11996-.6935,1.64385-1.07878,3.31339-1.13015,5.08567-.10274,3.15928-.48802,6.21581-1.13015,9.22098-.28254,1.25857-.41096,2.54283-.38528,3.90415.02569.46233-.07706.92467-.28254,1.33563-.64213,1.41269-.71919,3.00517-.23117,4.80313-2.51715,1.43837-3.67298,3.13359-3.49318,5.08567-2.10619,1.77228-3.03085,4.59765-2.774,8.42474.28254,4.57196.6935,9.09256,1.2072,13.56178.05137.28254.20548.5137.46233.66781.30822.15411.35959.35959.20548.66781-.59076,1.18152-.97604,2.36304-1.15583,3.49318-.07706.43665.02569.79624.33391,1.15583.38528.43665.8733.48802,1.46406.20548l-4.75176,7.26891c-.28254.43665-.64213.6935-1.13015.77056l-7.16617,1.48974c-.82193.1798-1.5668,0-2.23461-.5137-2.15756-1.66954-4.39217-3.36476-6.70383-5.05998-4.62333-3.44181-3.2877-10.83915-4.161-15.84776-1.13015-6.54972-2.20893-12.94533-3.21065-19.16115-.15411-.95035.23117-1.51543,1.2072-1.69522,7.8083-1.387,10.81346-7.91104,13.45904-14.48644,2.774-6.90931,14.33233-9.37509,12.86828-17.5173-1.00172-5.62506-2.10619-10.76209-3.2877-15.46248-1.30994-5.23978-3.69867-9.24667-7.14048-11.99498-11.53265-9.14393-28.09959-11.7895-39.94046-2.05481-4.41785,3.67298-8.09083,7.73124-10.50524,13.07376-2.64557,5.90759-4.26374,11.86655-4.82881,17.87689-2.05481-.92467-2.774.56507-2.20893,4.44354.07706.5137.28254.95035.61644,1.30994.41096.46233.56507.97604.5137,1.59248-.07706.5137.10274.97604.48802,1.33563l1.15583,1.07878c-.46233.79624-1.13015,1.41269-1.97776,1.84933-.33391-.05137-.48802-.15411-.46233-.30822.20548-1.02741.07706-1.97776-.38528-2.82537-.89898-1.74659-1.18152-3.4675-.84761-5.18841.28254-1.48974.25685-2.9538-.05137-4.39217-.1798-.77056-.33391-.77056-.46233.02569-.56507,3.41613-.48802,6.80657.1798,10.19702.10274.5137,0,1.00172-.28254,1.46406-1.59248,2.51715-3.36476,5.05998-5.34252,7.60281-1.46406,1.87502-2.64557,3.69867-3.59593,5.49663-.95035,1.82365-2.00344,3.75004-3.15928,5.75348-1.23289,2.15756-1.36131,4.98293-2.54283,7.29459-.64213,1.23289-1.07878,2.46578-1.36131,3.72435-.25685,1.13015-.56507,2.23461-.95035,3.31339-1.69522,4.6747-2.00344,9.78606-.97604,15.33405.20548.95035-.25685,1.87502-.12843,2.69694.89898,6.88363,1.54111,13.61315,1.9007,20.16287.10274,2.05481.38528,4.05826.79624,5.98465.43665,2.05481.59076,4.08394.46233,6.0617-.05137.5137.05137.97604.25685,1.43837,1.61817,3.2877,2.28598,6.52404,2.00344,9.65763-.20548,2.36304-.61644,4.77744-1.28426,7.26891-.66781,2.56852-1.05309,5.0343-1.18152,7.39733-.28254,5.57368-.28254,11.37854.02569,17.36318.15411,3.33907,1.84933,6.36993,4.44354,8.45043,2.05481,1.64385,3.57024,3.62161,4.62333,5.90759.20548.46233.25685.95035.15411,1.43837-.84761,4.64902-.35959,8.68159,1.48974,12.12341,1.28426,2.44009,2.36304,2.33735,3.23633-.28254.43665-1.36131.97604-2.67126,1.66954-3.95552.74487-1.41269,1.387-2.92811,1.9007-4.57196.53939-1.72091,1.36131-3.23633,2.46578-4.59765.48802.8733.6935,1.43837.64213,1.69522-1.54111,5.47094-2.72263,9.0155-3.54456,10.65935-1.2072,2.36304-.6935,3.95552,1.54111,4.75176.46233.1798.82193.48802,1.07878.89898,4.70039,8.06515,10.81346,14.48644,18.33922,19.26389,3.15928,2.00344,6.57541,2.56852,10.04291,3.75004.43665.15411.82193.38528,1.13015.71919l4.46922,4.64902c.25685.25685.56507.41096.95035.48802,2.15756.35959,3.67298.46233,5.95896-.38528,3.90415-1.46406,8.01378-.71919,12.35457,2.20893-2.20893,2.72263-5.11135,4.90587-8.68159,6.60109-.74487.35959-1.18152.92467-1.30994,1.74659-.15411.82193.07706,1.51543.66781,2.0805.71919.6935,1.30994,1.59248,1.79796,2.72263l-3.26202-3.15928c-.23117-.23117-.53939-.38528-.8733-.48802-.33391-.07706-.64213-.07706-.97604.02569-.33391.07706-.64213.25685-.8733.48802-.25685.25685-.41096.53939-.5137.8733-1.64385,5.90759,1.18152,7.91104,4.3408,11.9693,1.36131,1.77228,2.87674,3.49318,4.54628,5.13704,2.41441,2.36304,5.29115,3.92983,8.63022,4.72607.35959.07706.6935.25685,1.00172.5137,3.85278,3.49318,7.6285,6.98637,11.2758,10.45387,2.20893,2.15756,3.18496,4.77744,2.90243,7.91104-1.05309,11.37854-2.33735,22.98824-3.85278,34.82911-.25685,2.0805-.6935,4.31511-1.25857,6.72952-.5137,2.15756-.79624,4.49491-.84761,6.98637-17.23476-9.73468-34.31541-22.65433-51.21626-38.75894-26.8667-25.60813-45.79668-56.1735-56.73857-91.72179-9.06687-29.51228-11.14737-60.23176-6.2415-92.13275,1.28426-8.29631,3.4675-16.48989,6.54972-24.55504,7.42302-19.52074,13.3563-40.223,24.37524-56.91837,18.49333-28.04822,45.66826-49.95768,77.41514-60.74546,8.98981-3.05654,18.92998-4.88018,29.8205-5.47094ZM82.36315,166.79958c.02569-.28254-.05137-.33391-.28254-.1798-.64213.41096-.97604.97604-1.02741,1.69522-.23117,4.44354-.15411,9.78606.23117,16.00187.02569.10274.05137.12843.10274.02569.02569-.05137.07706-.07706.12843-.10274.10274-.02569.1798-.10274.15411-.23117-.35959-5.88191-.12843-11.6097.6935-17.20907Z"/><path class="cls-4" d="M196.71359,105.20651c9.37509,2.15756,17.56867,5.26546,24.22113,12.6628,4.36648,4.82881,8.86139,10.09428,10.68504,16.41283,2.44009,8.45043,3.36476,16.74674,2.79969,24.88894-1.5668,22.06357-1.79796,40.94218-.6935,56.63583.41096,5.80485,1.54111,11.50696,3.33907,17.05496,4.49491,13.71589,9.94017,26.07046,16.36146,37.06372,13.89568,23.73311,32.18354,44.84633,52.26935,66.55031,5.08567,5.49663,10.86483,9.63194,15.82207,14.97446,14.61487,15.82207,27.0465,32.95409,35.00891,52.50052,4.90587,11.94361,5.23978,23.45057,2.56852,36.13905-1.87502,8.96413-6.78089,17.82552-11.53265,25.78792-2.2603,3.75004-5.05998,7.03774-8.42474,9.86311-21.01048,17.69709-46.25902,25.96772-73.71648,27.86842-12.43163.8733-23.86154.43665-34.21266-1.30994-6.67815-1.10446-16.28441-3.92983-28.76741-8.47611-10.42818-3.80141-20.9848-7.67987-31.61846-11.66107.1798-3.4675.5137-7.24322,1.00172-11.32717.5137-4.3408.84761-8.11652,1.00172-11.35285,1.33563-24.19544,3.44181-48.31383,6.34424-72.35516.02569-.41096.20548-.8733.5137-1.387.30822.71919.46233,1.51543.48802,2.38872,0,.66781.23117.77056.74487.30822,1.87502-1.72091,4.18668-1.69522,6.96068.07706.6935.46233,1.43837.74487,2.23461.84761.46233.07706.8733.23117,1.25857.46233l10.32544,6.16444c.66781.38528,1.18152.95035,1.48974,1.66954.71919,1.5668,1.43837,3.15928,2.13187,4.75176,1.13015,2.5942,3.05654,4.75176,5.75348,6.47267,1.25857.82193,2.56852,1.13015,3.90415.95035,1.5668-.20548,3.05654-.5137,4.49491-.95035.46233-.12843.92467-.15411,1.41269-.02569,1.9007.43665,3.44181,1.28426,4.59765,2.49146,2.74831,2.90243,5.75348,5.90759,8.98981,9.04118,1.43837,1.41269,3.39044,1.87502,4.57196,3.4675.33391.43665.71919.74487,1.2072.95035,1.18152.53939,2.28598,1.2072,3.2877,2.00344,1.05309.79624,2.10619,1.54111,3.15928,2.28598,2.36304,1.61817,4.72607,3.21065,7.1148,4.77744,2.36304,1.51543,4.77744,2.97948,7.29459,4.3408,4.161,2.28598,8.19357,4.80313,12.09772,7.60281,5.57368,3.95552-2.51715,11.58402,7.32028,14.69193,2.10619.66781,3.82709,2.31167,5.47094,3.72435.35959.33391.64213.74487.82193,1.23289.30822.82193.84761,1.43837,1.61817,1.84933.48802.25685.8733.59076,1.2072,1.00172,1.9007,2.33735,3.80141,4.70039,5.7278,7.08911.79624.97604,1.79796,1.82365,2.97948,2.49146,1.23289.66781,2.51715,1.05309,3.82709,1.07878,2.38872.07706,4.72607-.35959,7.01206-1.30994,3.33907-1.387,6.4213-3.18496,9.22098-5.44526,1.87502-1.48974,3.80141-2.46578,5.83054-2.9538,2.28598-.56507,4.62333-1.07878,6.96068-1.54111.43665-.07706.82193-.28254,1.10446-.64213.38528-.48802.95035-.77056,1.61817-.84761.43665-.02569.79624-.1798,1.13015-.43665l7.39733-5.62506c.15411-.07706.1798-.20548.10274-.33391-.07706-.15411-.20548-.20548-.35959-.10274-.38528.1798-.84761.25685-1.33563.23117-.43665-.05137-.79624.12843-1.05309.5137-.20548.33391-.46233.48802-.77056.48802-1.30994,0-1.36131-.25685-.1798-.79624,1.387-.59076,2.13187-1.51543,2.20893-2.74831,4.88018-3.9812,8.98981-8.8357,12.27752-14.53781,1.5668-2.72263,2.2603-5.80485,2.10619-9.22098-.02569-.6935-.30822-1.25857-.82193-1.72091-3.05654-2.64557-7.29459-3.82709-11.22443-1.92639-4.57196,2.20893-9.68331,3.2877-15.30837,3.21065-5.05998-.07706-10.32544.20548-15.79639.84761-.6935.07706-1.2072-.1798-1.51543-.79624-.5137-1.00172-.30822-1.54111.56507-1.66954.53939-.05137.95035-.28254,1.23289-.6935.10274-.15411.15411-.30822.12843-.48802-.07706-.28254-.25685-.46233-.53939-.5137-1.10446-.25685-2.00344.10274-2.69694,1.02741-.33391.46233-.79624.64213-1.36131.53939s-.92467-.41096-1.10446-.97604l-1.97776-6.72952c-.1798-.6935-.64213-.92467-1.33563-.66781l-.59076.23117c-.79624.30822-1.10446.8733-.92467,1.69522.64213,2.74831,2.0805,4.8545,4.3408,6.29287.59076.38528.64213.82193.15411,1.33563-.64213.61644-1.387.79624-2.23461.5137-11.45559-3.54456-20.90774-9.65763-28.30507-18.33922-8.01378-9.40078-15.87344-18.57039-23.60468-27.45746-2.2603-2.64557-4.77744-4.72607-3.10791-8.37337.56507-1.2072.41096-2.33735-.48802-3.33907-1.36131-1.59248-2.2603-3.33907-2.69694-5.26546-.53939-2.38872-2.49146-3.85278-4.75176-4.46922-.71919-.20548-1.23289-.64213-1.5668-1.30994-2.72263-5.65074-5.83054-8.322-12.09772-11.17305-9.83743-4.41785-19.70054-8.75865-29.61502-13.04807,1.2072-.66781,1.95207-1.74659,2.2603-3.18496.15411-.64213.46233-1.10446,1.00172-1.46406.89898-.56507,1.64385-1.387,2.18324-2.49146.25685-.5137.66781-.89898,1.18152-1.15583,5.21409-2.49146,10.19702-5.11135,14.94878-7.88535,4.18668-2.41441,6.4213-5.47094,6.65246-9.14393,1.48974-1.82365,2.31167-3.33907,2.41441-4.52059.6935-6.70383.77056-13.02239.20548-18.95567-.71919-7.60281-7.6285-10.76209-14.40939-12.3032-7.32028-1.69522-14.43507-2.54283-21.34439-2.56852-.46233-.02569-.82193-.20548-1.10446-.53939-.28254-.35959-.38528-.77056-.28254-1.2072.23117-1.15583.64213-2.20893,1.23289-3.18496.28254-.48802.25685-.92467-.10274-1.33563-.38528-.43665-.84761-.53939-1.387-.23117-.74487.43665-1.48974.48802-2.18324.1798-.61644-.28254-.95035-.74487-.97604-1.41269-.25685-6.13876-.84761-12.61143-1.79796-19.418-1.43837-10.17133-2.56852-20.65089-6.0617-30.28283-.89898-2.51715-2.20893-4.64902-3.9812-6.44698-.33391-.33391-.77056-.56507-1.25857-.61644-2.02913-.23117-3.72435-.6935-5.08567-1.33563-.79624-.38528-1.36131-.97604-1.74659-1.79796-.35959-.79624-.41096-1.61817-.1798-2.49146l28.33076-101.40511Z"/><path class="cls-6" d="M82.36315,166.79958c-.82193,5.59937-1.05309,11.32717-.6935,17.20907.02569.12843-.05137.20548-.15411.23117-.05137.02569-.10274.05137-.12843.10274-.05137.10274-.07706.07706-.10274-.02569-.38528-6.21581-.46233-11.55833-.23117-16.00187.05137-.71919.38528-1.28426,1.02741-1.69522.23117-.15411.30822-.10274.28254.1798Z"/><path class="cls-6" d="M84.44365,185.16449c-6.78089,8.57885-10.63367,18.2108-13.76726,28.40781-1.87502,6.13876-1.5668,13.25355-.53939,19.67485,1.02741,6.19013,1.61817,12.43163,1.82365,18.67313.20548,6.49835,2.00344,12.9967,3.75004,19.08409.79624,2.69694-.15411,4.59765.02569,7.26891.05137.46233-.05137.8733-.25685,1.28426-3.49318,6.98637-4.31511,13.99843-2.49146,21.01048.43665,1.64385.28254,3.18496-.43665,4.64902-.20548.46233-.30822.95035-.25685,1.46406.41096,3.59593,2.23461,5.95896,5.47094,7.14048l4.13531,4.26374.95035,2.05481c.07706,2.92811-1.05309,5.23978-3.41613,6.98637-.43665.30822-.71919.74487-.82193,1.28426-.1798.84761.25685,1.387,1.23289,1.61817.61644.12843,1.10446-.07706,1.41269-.61644l4.00689-6.78089c.84761.5137,1.43837,1.387,1.77228,2.56852-1.10446,1.36131-1.92639,2.87674-2.46578,4.59765-.5137,1.64385-1.15583,3.15928-1.9007,4.57196-.6935,1.28426-1.23289,2.5942-1.66954,3.95552-.8733,2.61989-1.95207,2.72263-3.23633.28254-1.84933-3.44181-2.33735-7.47439-1.48974-12.12341.10274-.48802.05137-.97604-.15411-1.43837-1.05309-2.28598-2.56852-4.26374-4.62333-5.90759-2.5942-2.0805-4.28943-5.11135-4.44354-8.45043-.30822-5.98465-.30822-11.7895-.02569-17.36318.12843-2.36304.5137-4.82881,1.18152-7.39733.66781-2.49146,1.07878-4.90587,1.28426-7.26891.28254-3.13359-.38528-6.36993-2.00344-9.65763-.20548-.46233-.30822-.92467-.25685-1.43837.12843-1.97776-.02569-4.00689-.46233-6.0617-.41096-1.92639-.6935-3.92983-.79624-5.98465-.35959-6.54972-1.00172-13.27924-1.9007-20.16287-.12843-.82193.33391-1.74659.12843-2.69694-1.02741-5.548-.71919-10.65935.97604-15.33405.38528-1.07878.6935-2.18324.95035-3.31339.28254-1.25857.71919-2.49146,1.36131-3.72435,1.18152-2.31167,1.30994-5.13704,2.54283-7.29459,1.15583-2.00344,2.20893-3.92983,3.15928-5.75348.95035-1.79796,2.13187-3.62161,3.59593-5.49663,1.97776-2.54283,3.75004-5.08567,5.34252-7.60281.28254-.46233.38528-.95035.28254-1.46406-.66781-3.39044-.74487-6.78089-.1798-10.19702.12843-.79624.28254-.79624.46233-.02569.30822,1.43837.33391,2.90243.05137,4.39217-.33391,1.72091-.05137,3.44181.84761,5.18841.46233.84761.59076,1.79796.38528,2.82537-.02569.15411.12843.25685.46233.30822Z"/><path class="cls-6" d="M85.85634,173.55479c1.51543,2.72263,3.13359,4.8545,4.88018,6.34424.25685.23117.35959.48802.33391.82193-.05137.33391-.23117.56507-.5137.6935l-4.13531,1.9007-1.15583-1.07878c-.38528-.35959-.56507-.82193-.48802-1.33563.05137-.61644-.10274-1.13015-.5137-1.59248-.33391-.35959-.53939-.79624-.61644-1.30994-.56507-3.87846.15411-5.3682,2.20893-4.44354Z"/><path class="cls-6" d="M157.82622,208.76917c-.66781.1798-1.02741-.07706-1.05309-.79624-.10274-1.77228,1.13015-2.46578,3.6473-2.0805.38528.07706.61644.28254.6935.66781.10274.35959-.02569.66781-.33391.8733-.82193.59076-1.79796,1.05309-2.9538,1.33563Z"/><path class="cls-6" d="M120.53134,208.46095l2.23461,15.7707c.02569.25685-.07706.41096-.30822.5137-.23117.07706-.43665.02569-.56507-.20548l-5.47094-9.1953c-.10274-.12843-.10274-.28254-.02569-.43665l3.26202-6.57541c.10274-.20548.25685-.28254.48802-.25685.23117.05137.35959.1798.38528.38528Z"/><path class="cls-6" d="M153.63954,208.69212c.89898,2.20893.95035,5.34252.1798,9.34941-.53939,2.87674.43665,4.80313,2.90243,5.77917.71919.30822,1.02741.84761.89898,1.61817-.64213,4.54628-2.05481,8.34768-4.23806,11.42991-.59076.28254-1.07878.23117-1.46406-.20548-.30822-.35959-.41096-.71919-.33391-1.15583.1798-1.13015.56507-2.31167,1.15583-3.49318.15411-.30822.10274-.5137-.20548-.66781-.25685-.15411-.41096-.38528-.46233-.66781-.5137-4.46922-.92467-8.98981-1.2072-13.56178-.25685-3.82709.66781-6.65246,2.774-8.42474Z"/><path class="cls-6" d="M156.36217,222.09978c-.48802-.10274-.82193-.59076-.97604-1.41269-.1798-.84761-.10274-1.77228.15411-2.82537.28254-1.02741.66781-1.87502,1.23289-2.54283.53939-.64213,1.05309-.89898,1.54111-.77056s.82193.61644.97604,1.43837c.1798.82193.10274,1.77228-.15411,2.79969-.28254,1.05309-.66781,1.9007-1.2072,2.54283-.56507.64213-1.07878.89898-1.5668.77056Z"/><path class="cls-4" d="M172.62089,219.4799c-.07706-.25685-.07706-.53939-.05137-.82193.05137-.48802.30822-.84761.77056-1.05309s.89898-.1798,1.30994.12843c2.90243,2.02913,4.08394,5.41957,4.59765,8.8357,2.23461,15.15426,4.03257,30.41126,5.3682,45.79668.02569.35959-.12843.59076-.48802.71919-4.52059,1.36131-10.9162,2.44009-14.79467-1.387-3.67298-3.62161-7.24322-7.34596-10.71072-11.12168-.48802-.5137-.59076-1.10446-.35959-1.77228,1.23289-3.31339,1.64385-6.88363,1.2072-10.71072-.10274-.84761.1798-1.54111.82193-2.0805,1.23289-1.05309,2.02913-2.38872,2.38872-4.03257.28254-1.25857-.12843-2.20893-1.25857-2.82537-1.23289-.6935-1.59248-1.72091-1.10446-3.05654l4.26374-11.32717c.1798-.41096.43665-.77056.82193-1.02741,2.05481-1.41269,4.3408-2.54283,6.78089-3.41613.41096-.15411.56507-.43665.43665-.84761Z"/><path class="cls-4" d="M167.9205,220.04497c.15411.38528-.28254.79624-1.30994,1.23289-1.02741.46233-1.61817.48802-1.79796.10274-.15411-.35959.28254-.79624,1.30994-1.23289,1.02741-.46233,1.61817-.48802,1.79796-.10274Z"/><path class="cls-6" d="M152.81761,248.29867l-.82193,3.15928c-.05137.23117-.20548.41096-.43665.5137-.25685.07706-.48802.07706-.71919-.05137l-.92467-.59076c-.48802-.28254-.59076-.66781-.35959-1.18152.53939-1.15583,1.36131-1.97776,2.44009-2.51715.77056-.35959,1.02741-.15411.82193.66781Z"/><path class="cls-6" d="M74.27232,297.74265c-.25685-.05137-.38528-.20548-.35959-.48802l.46233-3.18496c.20548-1.48974.46233-2.90243.74487-4.26374s.59076-2.56852.89898-3.59593.61644-1.82365.89898-2.36304.53939-.79624.77056-.77056l.10274.02569c.23117.02569.41096.33391.53939.95035.12843.59076.20548,1.43837.23117,2.49146,0,1.07878-.05137,2.31167-.15411,3.69867-.10274,1.41269-.28254,2.85106-.48802,4.3408l-.46233,3.18496c-.02569.28254-.1798.38528-.46233.35959l-2.72263-.38528Z"/><path class="cls-4" d="M81.66965,304.39511c.12843,1.00172-.23117,1.23289-1.05309.66781l-1.41269-.95035c-.71919-.48802-.66781-.89898.12843-1.23289,1.36131-.56507,2.13187-.05137,2.33735,1.51543Z"/><path class="cls-4" d="M78.74154,309.45509c-.41096.46233-1.02741.30822-1.82365-.46233-.79624-.74487-.97604-1.36131-.53939-1.79796.43665-.46233,1.05309-.30822,1.84933.46233.79624.74487.95035,1.36131.5137,1.79796Z"/><path class="cls-4" d="M81.90082,318.08532l-4.13531-4.26374c1.46406-.8733,2.69694-1.30994,3.75004-1.30994.46233,0,.82193.1798,1.07878.59076.25685.38528.30822.79624.10274,1.23289-.82193,1.9007-1.07878,3.15928-.79624,3.75004Z"/><path class="cls-6" d="M226.43135,315.08015c-.23117,3.67298-2.46578,6.72952-6.65246,9.14393-4.75176,2.774-9.73468,5.39389-14.94878,7.88535-.5137.25685-.92467.64213-1.18152,1.15583-.53939,1.10446-1.28426,1.92639-2.18324,2.49146-.53939.35959-.84761.82193-1.00172,1.46406-.30822,1.43837-1.05309,2.51715-2.2603,3.18496-1.00172-.02569-1.69522-.25685-2.0805-.71919-.30822-.35959-.30822-.71919,0-1.07878l11.35285-13.40767c.43665-.48802.92467-.8733,1.48974-1.18152l17.46592-8.93844Z"/><path class="cls-6" d="M175.62606,319.70348c.28254,0,.48802.15411.61644.41096.15411.25685.12843.5137-.02569.74487l-3.82709,6.03602c-.28254.43665-.64213.5137-1.07878.23117-4.77744-2.97948-9.68331-5.39389-14.71761-7.21754-4.03257-1.46406-3.90415-2.20893.38528-2.20893,3.77572.02569,7.4487-.79624,11.01894.48802,2.5942.89898,5.13704,1.41269,7.6285,1.51543Z"/><path class="cls-4" d="M82.85117,320.14013c.35959,1.51543,1.18152,2.33735,2.41441,2.49146l-4.00689,6.78089c-.30822.53939-.79624.74487-1.41269.61644-.97604-.23117-1.41269-.77056-1.23289-1.61817.10274-.53939.38528-.97604.82193-1.28426,2.36304-1.74659,3.49318-4.05826,3.41613-6.98637Z"/><path class="cls-6" d="M87.67999,326.89533c3.51887,11.14737,9.76037,20.06013,18.75018,26.78965,4.52059,3.36476,9.76037,4.8545,15.69365,4.39217.41096-.02569.77056.10274,1.05309.38528.30822.28254.46233.64213.43665,1.05309l-.12843,5.26546c0,.5137.15411.97604.5137,1.36131s.79624.59076,1.30994.61644c2.67126.15411,4.98293-.97604,6.935-3.39044,1.10446-1.36131,2.79969-1.9007,4.23806-.6935.56507.46233,1.18152.82193,1.87502,1.05309,3.62161,1.2072,7.29459,2.05481,11.01894,2.49146.41096.05137.71919.25685.89898.61644.1798.38528.15411.74487-.07706,1.10446-.82193,1.30994-2.0805,2.2603-3.80141,2.85106-1.84933.66781-4.00689,1.69522-6.39561,3.10791-4.3408-2.92811-8.45043-3.67298-12.35457-2.20893-2.28598.84761-3.80141.74487-5.95896.38528-.38528-.07706-.6935-.23117-.95035-.48802l-4.46922-4.64902c-.30822-.33391-.6935-.56507-1.13015-.71919-3.4675-1.18152-6.88363-1.74659-10.04291-3.75004-7.52576-4.77744-13.63883-11.19874-18.33922-19.26389-.25685-.41096-.61644-.71919-1.07878-.89898-2.23461-.79624-2.74831-2.38872-1.54111-4.75176.82193-1.64385,2.00344-5.18841,3.54456-10.65935Z"/><path class="cls-4" d="M13.98919,344.72085c6.11307,15.10289,12.50868,29.43522,21.42144,43.53639,1.33563,2.10619,1.61817,4.26374.82193,6.4213-.20548.61644-.61644,1.07878-1.18152,1.36131-2.15756,1.13015-4.36648,1.46406-6.65246,1.05309-14.82035-2.774-24.68346-22.16631-27.58589-35.72809-1.15583-5.39389-1.07878-10.65935.23117-15.79639,1.05309-4.00689,3.85277-8.27063,8.52747-5.88191,2.00345,1.02741,3.46751,2.72263,4.41786,5.0343Z"/><path class="cls-4" d="M346.68938,346.90409c19.18683,6.52404,29.76913,19.31526,31.79826,38.37366.07706.71919-.10274,1.36131-.53939,1.92639-4.57196,6.13876-8.57885,2.9538-12.12341-1.48974-9.27235-11.68676-19.72622-21.96083-31.41298-30.84791-1.74659-1.33563-2.49146-4.00689-1.05309-5.90759,3.54456-4.70039,8.57885-3.67298,13.33061-2.05481Z"/><path class="cls-6" d="M127.38928,364.34433c-.20548.15411-.38528.12843-.53939-.07706l-.12843-.20548c-.46233-.64213-.64213-1.36131-.53939-2.13187.10274-.79624.46233-1.41269,1.07878-1.84933.64213-.46233,1.33563-.61644,2.10619-.46233.79624.12843,1.41269.53939,1.87502,1.18152l.12843.1798c.15411.20548.12843.38528-.07706.53939l-3.90415,2.82537Z"/><path class="cls-4" d="M175.16372,379.39585c-.30822.02569-.61644-.23117-.92467-.77056-.30822-.56507-.5137-1.25857-.64213-2.10619-.10274-.82193-.10274-1.5668.02569-2.18324s.35959-.95035.66781-1.00172c.30822-.02569.59076.23117.89898.77056.30822.56507.5137,1.25857.64213,2.10619.12843.82193.12843,1.54111,0,2.18324-.15411.61644-.35959.95035-.66781,1.00172Z"/><path class="cls-6" d="M341.06432,457.42744c-.07706,1.23289-.82193,2.15756-2.20893,2.74831-1.18152.53939-1.13015.79624.1798.79624.30822,0,.56507-.15411.77056-.48802.25685-.38528.61644-.56507,1.05309-.5137.48802.02569.95035-.05137,1.33563-.23117.15411-.10274.28254-.05137.35959.10274.07706.12843.05137.25685-.10274.33391l-7.39733,5.62506c-.33391.25685-.6935.41096-1.13015.43665-.66781.07706-1.23289.35959-1.61817.84761-.28254.35959-.66781.56507-1.10446.64213-2.33735.46233-4.6747.97604-6.96068,1.54111-2.02913.48802-3.95552,1.46406-5.83054,2.9538-2.79969,2.2603-5.88191,4.05826-9.22098,5.44526-2.28598.95035-4.62333,1.387-7.01206,1.30994-1.30994-.02569-2.5942-.41096-3.82709-1.07878-1.18152-.66781-2.18324-1.51543-2.97948-2.49146-1.92639-2.38872-3.82709-4.75176-5.7278-7.08911-.33391-.41096-.71919-.74487-1.2072-1.00172-.77056-.41096-1.30994-1.02741-1.61817-1.84933-.1798-.48802-.46233-.89898-.82193-1.23289-1.64385-1.41269-3.36476-3.05654-5.47094-3.72435-9.83743-3.10791-1.74659-10.73641-7.32028-14.69193-3.90415-2.79969-7.93672-5.31683-12.09772-7.60281-2.51715-1.36131-4.93156-2.82537-7.29459-4.3408-2.38872-1.5668-4.75176-3.15928-7.1148-4.77744-1.05309-.74487-2.10619-1.48974-3.15928-2.28598-1.00172-.79624-2.10619-1.46406-3.2877-2.00344-.48802-.20548-.8733-.5137-1.2072-.95035-1.18152-1.59248-3.13359-2.05481-4.57196-3.4675-3.23633-3.13359-6.2415-6.13876-8.98981-9.04118-1.15583-1.2072-2.69694-2.05481-4.59765-2.49146-.48802-.12843-.95035-.10274-1.41269.02569-1.43837.43665-2.92811.74487-4.49491.95035-1.33563.1798-2.64557-.12843-3.90415-.95035-2.69694-1.72091-4.62333-3.87846-5.75348-6.47267-.6935-1.59248-1.41269-3.18496-2.13187-4.75176-.30822-.71919-.82193-1.28426-1.48974-1.66954l-10.32544-6.16444c-.38528-.23117-.79624-.38528-1.25857-.46233-.79624-.10274-1.54111-.38528-2.23461-.84761-2.774-1.77228-5.08567-1.79796-6.96068-.07706-.5137.46233-.74487.35959-.74487-.30822-.02569-.8733-.1798-1.66954-.48802-2.38872l.84761-1.74659c.20548-.46233.1798-.89898-.07706-1.33563-.77056-1.23289-.77056-2.38872-.02569-3.51887.33391-.5137.48802-1.07878.46233-1.66954l-.02569-.71919c-.02569-.64213.28254-.92467.92467-.82193,2.20893.41096,4.41785.6935,6.29287,1.82365,4.18668,2.56852,8.34768,5.05998,12.45731,7.47439,3.03085,1.79796,6.21581,2.74831,9.55489,3.72435.95035.25685,1.33563.8733,1.10446,1.84933l-1.10446,4.82881c-.07706.48802-.02569.95035.23117,1.36131,1.74659,2.90243,4.13531,5.18841,7.14048,6.85794.56507.30822,1.15583.33391,1.72091.05137.84761-.38528,1.23289-1.10446,1.23289-2.10619-.05137-1.23289.53939-1.97776,1.74659-2.28598l3.85278-.92467c.46233-.12843.82193.02569,1.07878.41096,6.21581,9.58057,13.89568,17.10633,23.0653,22.57728,10.73641,6.4213,21.42144,13.09944,32.05511,20.06013,1.00172.61644,2.31167,1.92639,3.05654,2.82537,2.02913,2.28598,1.48974,3.33907-1.5668,3.15928l-2.51715-.15411c-.61644-.02569-1.02741.23117-1.25857.82193-.46233,1.13015-.38528,2.38872.25685,3.75004.23117.53939.64213.84761,1.23289.92467,1.46406.1798,2.9538.05137,4.44354-.35959,1.74659-.48802,3.05654.05137,3.95552,1.59248,2.18324,3.85278,3.44181,8.1422,6.90931,10.96757,1.61817,1.33563,2.774,3.05654,3.49318,5.21409.74487,2.2603,2.90243,3.80141,5.34252,3.03085,4.05826-1.28426,8.11652-2.82537,12.12341-4.59765.41096-.1798.71919-.46233.92467-.84761,1.66954-3.13359,3.67298-4.77744,6.03602-4.95724,6.78089-.53939,12.25183-2.41441,16.41283-5.57368Z"/><path class="cls-6" d="M132.47495,387.05003c2.15756,2.51715,4.31511,5.16272,6.49835,7.91104,2.51715,3.21065,5.80485,4.52059,9.81174,3.92983.66781-.10274,1.18152.15411,1.51543.77056,3.13359,5.7278,7.75693,9.94017,13.87,12.61143.38528.15411.56507.46233.5137.89898l-6.4213,63.49377c-2.49146-.74487-4.3408-1.61817-5.548-2.61989.05137-2.49146.33391-4.82881.84761-6.98637.56507-2.41441,1.00172-4.64902,1.25857-6.72952,1.51543-11.84087,2.79969-23.45057,3.85278-34.82911.28254-3.13359-.6935-5.75348-2.90243-7.91104-3.6473-3.4675-7.42302-6.96068-11.2758-10.45387-.30822-.25685-.64213-.43665-1.00172-.5137-3.33907-.79624-6.21581-2.36304-8.63022-4.72607-1.66954-1.64385-3.18496-3.36476-4.54628-5.13704-3.15928-4.05826-5.98465-6.0617-4.3408-11.9693.10274-.33391.25685-.61644.5137-.8733.23117-.23117.53939-.41096.8733-.48802.33391-.10274.64213-.10274.97604-.02569.33391.10274.64213.25685.8733.48802l3.26202,3.15928Z"/><path class="cls-4" d="M173.57124,385.66303h.23117c.61644.02569.89898.33391.8733.92467l-.35959,10.11996c-.02569.59076-.33391.89898-.92467.8733l-.25685-.02569c-.59076,0-.8733-.33391-.8733-.92467l.38528-10.09428c.02569-.61644.33391-.89898.92467-.8733Z"/><path class="cls-6" d="M165.99411,481.82836c-.74487-1.387-2.31167-2.54283-4.72607-3.49318l5.83054-63.08281c.10274-.89898.59076-1.36131,1.48974-1.41269l2.49146-.12843c.38528-.02569.6935.10274.95035.35959s.35959.59076.30822.95035l-6.34424,66.80716Z"/></g></svg>